/* XPM */
static const char *bell_xpm[] = {
/* columns rows colors chars-per-pixel */
"16 16 177 2",
"{  c #C2A479",
"K. c #DEB659",
"w. c #F5E29A",
"%. c #9A6611",
"I. c #EBCB67",
"!  c #EBBF41",
"N. c #FCFBFA",
"L  c #FAEFBF",
"&. c #905B0C",
"Y  c #B68D42",
"X  c #B6872E",
"b. c #B17A12",
"N  c #DCB043",
"~. c #C5902E",
"H  c #F8E392",
"t. c #A26E15",
"%  c #D7AF52",
"e  c #F3D36D",
"e. c #D2AB54",
"#  c None",
"(. c #A27126",
"_. c #F5F1EB",
"i. c #D29618",
",  c #B98B32",
":  c #D7B26C",
"v. c #E4CA85",
"1  c #EECF7D",
"M. c #B48430",
"K  c #FDF9E9",
"X. c #ECC347",
"D. c #EED8A4",
"r  c #F6E39C",
")  c #FBEDB9",
"D  c #ECC04A",
"c  c #FBF3D7",
"=  c #F4D771",
"Y. c #BC7D05",
"U  c #EAD283",
"H. c #F1E5CE",
"$  c #BA9242",
"   c #E2D0AE",
".  c #BA9243",
"a  c #DDBD7F",
"p  c #CEA24C",
"!. c #C9983C",
"m. c #B57906",
"n. c #B57908",
"9. c #EAB430",
"<. c #C98F21",
"z  c #F2D164",
"d. c #DBBA6B",
":. c #E0A926",
"x  c #F7E49C",
"/. c #EADEC7",
"T. c #FEFDFD",
"n  c #EDCA63",
"-. c #F9F3E9",
"*  c #E8C35F",
"y. c #BD9F70",
"4. c #A47016",
"P. c #B37606",
"#. c #F5E196",
"6. c #905D0C",
"^  c #D9A83A",
"w  c #F0CB5E",
"`  c #FAEEBB",
"=. c #F7F3EE",
"q  c #F0CB63",
"a. c #D9A22E",
"u  c #F3D564",
"f. c #B17F1D",
"G  c #F3D567",
"Q  c #EBB835",
"(  c #F8E289",
"g  c #C08513",
"g. c #A77419",
"/  c #F3D56D",
"E. c #CDAF6B",
"l. c #F0E3C9",
"B. c #EBD9B7",
"J. c #C8901D",
"C  c #CDA046",
"V. c #CD972B",
"c. c #E9BE4E",
" . c #E9B532",
"+  c #D2A756",
"G. c #BE7F05",
">. c #E9B535",
"q. c #DFAD38",
"b  c #F4D65B",
"*. c #966519",
"5  c #F4D65C",
"l  c #F1C954",
"R. c #FDFBF8",
"+. c #DAA93E",
"s  c #E4CC9C",
"S  c #ECBC3E",
"Q. c #CBA96D",
"F. c #F1DEAF",
"T  c #A3742B",
"B  c #CE9B2B",
"|  c #D39919",
"i  c #D3A238",
"9  c #C99D44",
"}  c #D8B570",
"8  c #DDBF85",
"0. c #EAB938",
"'  c #E5CD87",
"&  c #BF830A",
"O  c #C48D21",
"8. c #C4870E",
"v  c #F7E391",
"p. c #EAB636",
"3. c #D6B564",
"S. c #B57807",
"4  c #F7E396",
"7  c #BF800B",
"k  c #EDC349",
"6  c #E8C55D",
";  c #CC9826",
"W. c #925F12",
">  c #F4EBD9",
";. c #BD8005",
"_  c #FCF6D9",
"@. c #DEB449",
"J  c #FCF6DB",
"). c #C2A57B",
"2  c #F5DD8A",
"2. c #F5E3A0",
"t  c #FAEAAE",
"s. c #F0D37B",
"u. c #D9B671",
"F  c #E6BC4B",
"^. c #E3CA9C",
"L. c #B68E43",
".. c #EBBA39",
"M  c #E1B84C",
"I  c #F8E187",
"j. c #B6945E",
"~  c #E1B23E",
"-  c #EECD62",
"5. c #986410",
"h. c #9D6813",
"R  c #EBD8B3",
"z. c #C88F1B",
"O. c #CD9627",
",. c #E4B641",
"<  c #BE8109",
"r. c #AF7B1B",
"h  c #EEC45C",
"$. c #DFC178",
"x. c #E9B12D",
"k. c #FDFDFC",
"d  c #E9D5AE",
"Z. c #E7CF89",
"7. c #DAC9AF",
"A  c #ECB836",
"P  c #F9E89E",
"Z  c #DDA629",
"0  c #E2BC66",
"]  c #946112",
"[  c #8F5A0B",
"E  c #C48910",
"3  c #F9E5A7",
"o  c #C99C45",
"C. c #EAB22B",
"U. c #EDCE6A",
"W  c #EAB22F",
"V  c #F4EDE0",
"f  c #F9F4EB",
"y  c #F5D967",
"@  c #EFE0C3",
"m  c #E3BD54",
"o. c #D19B2C",
"1. c #D6A238",
"j  c #EDBC40",
"A. c #A97822",
/* pixels */
"  . X o O + @ # # # # # # # # # ",
"$ % & * = - ; : > # # # # # # # ",
", < 1 2 3 4 5 6 7 8 # # # # # # ",
"9 0 q w e r t y u i p a s d f # ",
"g h j k l z x c v b n m M N B V ",
"C Z A S D F G H J K L P I U Y T ",
"R E W Q ! ~ ^ / ( ) _ ` ' ] [ { ",
"# } |  ...X.o.O.+.@.#.$.%.&.*.=.",
"# -.;.:.>.S ,.<.1.2.3.4.5.6.7.# ",
"# # s 8.9.0.q.o.w.e.r.t.5.y.# # ",
"# # # u.i.p.a.s.d.f.g.h.j.k.# # ",
"# # # l.z.x.c.v.b.n.m.M.N.# # # ",
"# # # B.V.C.Z.A.S.D.F.G.k.# # # ",
"# # # H.J.K.L.5.P.I.U.Y.T.# # # ",
"# # # R.< E.[ W.Q.!.~.^.# # # # ",
"# # # # /.(.)._.# # # # # # # # "
};
