/* XPM */
static const char *computer_go_xpm[] = {
/* columns rows colors chars-per-pixel */
"16 16 183 2",
"K  c #CACACA",
"C  c #587EB3",
"6  c #C5C6CB",
"H  c #D4D5D9",
"C. c #66A548",
"G. c #49911B",
"6. c #6BA337",
"$. c #389436",
"m. c #A5C88D",
"2. c #C8CDCB",
">. c #7CAF55",
"&. c #787878",
"@. c #81B35A",
"<  c #A5A5A5",
"^. c #5FA143",
"4. c #B4B4B4",
"e. c #368809",
"E  c #B9BBC1",
"t  c #C3C3C3",
"p. c #CDCED1",
"o. c #749CD2",
"c  c #BEBFC5",
"M  c #567BB0",
"x  c #EBECED",
"l  c #DCDDE0",
"N  c #567BB1",
"   c None",
"}  c #56A950",
"T. c #8F8F8F",
"8. c #ADCD94",
"q  c #9E9E9E",
"0. c #90BC74",
"8  c #C1C3C8",
"2  c #CBCBCB",
"Z  c #597FB4",
"{. c #1E7B03",
"b  c #D5D6DA",
"L  c #688EC4",
"U. c #576753",
"b. c #5B9B29",
"d. c #89B86B",
"`. c #797979",
"v. c #979797",
"i  c #B5B5B5",
"o  c #C4C4C4",
"7. c #B0CE96",
"e  c #D3D3D3",
"I  c #6B92C8",
"E. c #D3D3D5",
"B  c #577CB1",
"k  c #DDDEE1",
"y. c #E2E2E4",
"Q  c #D3D3D7",
"n. c #A9CA90",
"]  c #6FA53D",
"K. c #5E9F3A",
"S. c #909090",
"t. c #AEAEAE",
"|  c #D1D3D7",
"&  c #CCCCCC",
"A  c #5A80B5",
"W  c #B8B9C0",
"d  c #D6D7DB",
"1. c #468F18",
"4  c #EAEAEA",
">  c #DBDBDE",
"#. c #579828",
"L. c #96C180",
"]. c #6B6B6B",
"=. c #91AFD9",
"). c #898989",
"f  c #989898",
"r. c #696E67",
"z. c #A7A7A7",
":. c #619D30",
"A. c #566851",
"@  c #B6B6B6",
"{  c #A2C69C",
"~  c #C5C5C5",
"v  c #BBBDC3",
"z  c #D9DBDE",
"j  c #DEDFE1",
"V  c #587DB2",
"^  c #587DB3",
"=  c #E3E3E6",
"3. c #737373",
",. c #AACB91",
"n  c #919191",
"s  c #919192",
".. c #6F97CD",
".  c #CDCDCD",
"*  c #DCDCDC",
"Z. c #318613",
"D  c #D7D8DC",
"P  c #6A90C6",
";  c #DCDCDF",
"J. c #3B8B0F",
"V. c #97C282",
"9. c #A8CB90",
"G  c #8A8A8A",
"(. c #197900",
"D. c #C1C2C4",
"X. c #729BD1",
"q. c #A1C78A",
"W. c #DFE0E2",
"U  c #6D94CA",
"u. c #D5D5D7",
"%. c #D0D1D6",
"'. c #747474",
"_. c #838383",
"R. c #929292",
"#  c #B0B0B0",
"y  c #BFBFBF",
"[  c #659F31",
"T  c #7098CE",
"m  c #CECECE",
"0  c #D8D9DC",
"5  c #C9CACF",
"/  c #6B91C7",
"5. c #DDDDE0",
"~. c #2B8301",
",  c #ECECEE",
"l. c #267F01",
"}. c #157900",
"J  c #8B8B8B",
"a. c #639F31",
"g. c #80B361",
"<. c #74AB4F",
"w  c #D6D6D6",
"/. c #1F7B00",
")  c #6E95CB",
"R  c #D6D6DB",
"!  c #848484",
"*. c #91AED8",
"a  c #939394",
"x. c #A2A2A2",
"O  c #C0C0C0",
"`  c #7199CF",
"1  c #CFCFCF",
"p  c #AAAAAA",
"N. c #9EC588",
"r  c #C8C8C8",
"i. c #D2D3D5",
"-  c #DCDEE1",
"Y  c #6F96CC",
"7  c #C3C4CA",
"F. c #519722",
"P. c #62A346",
"%  c #D0D0D0",
";. c #67A134",
"3  c #DFDFDF",
"M. c #A1C68A",
"Q. c #DFDFE1",
"(  c #6D93C9",
"9  c #C1C1C7",
"+. c #67A138",
"h  c #DFDFE2",
"Y. c #606060",
" . c #7E7E7E",
"F  c #8D8D8D",
"H. c #438F15",
"c. c #9C9C9C",
"s. c #8EBA6F",
"$  c #ABABAB",
"u  c #BABABA",
"O. c #759ED4",
"X  c #C9C9C9",
"[. c #217D00",
"h. c #82B567",
"S  c #4D72A7",
"_  c #7097CD",
"j. c #98C283",
"'  c #739BD1",
":  c #DBDCDF",
"I. c #267B0A",
"f. c #85B666",
"g  c #EFEFF1",
"B. c #85B66A",
"w. c #68A546",
"k. c #5CA03C",
"!. c #707070",
"-. c #6DA338",
"+  c #BBBBBB",
/* pixels */
"                . X o O + @ # $ ",
"            % & * = - ; : > , < ",
"          1 2 3 4 5 6 7 8 9 0 q ",
"w e % & r t y u i # p < a s d f ",
"e g h h j k l : > z x q c v b n ",
"m h M N B V C Z A S D f F G H J ",
"K j B L P I U Y T S R n E W Q ! ",
"~ - ^ / ( ) _ ` ' S ] [ { } |  .",
"O ; Z ) ..` X.o.O.S +.@.#.$.%.&.",
"u > A T *.=.] -.;.:.>.,.<.1.2.3.",
"4.5.S S S S 6.7.8.,.9.0.q.w.e.r.",
"t.y.u.i.p.7 a.8.s.d.f.g.h.j.k.l.",
"z.x.c.v.n q b.n.m.M.N.B.V.C.Z.A.",
"      S.J D.F.G.H.J.K.L.P.I.U.Y.",
"    T.R.E.W.: Q.!.  ~.^./.(.    ",
"    )._. .`.'.!.].  [.{.}.      "
};
