/* XPM */
static const char *computer_link_xpm[] = {
/* columns rows colors chars-per-pixel */
"16 16 162 2",
"K  c #CACACA",
"C  c #587EB3",
"6  c #C5C6CB",
"H  c #D4D5D9",
"4. c #E8E8E8",
"M. c #696969",
"#. c #787878",
"e. c #787879",
"<  c #A5A5A5",
"<. c #B4B4B4",
"E  c #B9BBC1",
"t  c #C3C3C3",
".. c #749CD2",
"c  c #BEBFC5",
"2. c #4C70A4",
"M  c #567BB0",
"x  c #EBECED",
"l  c #DCDDE0",
"N  c #567BB1",
"   c None",
"m. c #535353",
"A. c #626262",
"[  c #56A950",
",. c #717171",
"s. c #717173",
"Z. c #8F8F8F",
"q  c #9E9E9E",
"c. c #ADADAD",
"8  c #C1C3C8",
"2  c #CBCBCB",
"Z  c #597FB4",
"b  c #D5D6DA",
"L  c #688EC4",
"a. c #4C4C4C",
"y. c #4C4C4D",
"9. c #5B5B5B",
"p. c #797979",
":. c #888889",
"k. c #979797",
"i  c #B5B5B5",
"o  c #C4C4C4",
"e  c #D3D3D3",
"I  c #6B92C8",
"B  c #577CB1",
"k  c #DDDEE1",
"q. c #E2E2E4",
"Q  c #D3D3D7",
"d. c #727272",
"&. c #86888B",
"n. c #818181",
"0. c #AEAEAE",
"z. c #BDBDBD",
"{  c #D1D3D7",
"&  c #CCCCCC",
"A  c #5A80B5",
"W  c #B8B9C0",
"d  c #D6D7DB",
"4  c #EAEAEA",
">  c #DBDBDE",
"D. c #4D4D4D",
"H. c #6B6B6B",
"F. c #898989",
"f  c #989898",
"f. c #A7A7A7",
"O. c #42A13B",
"@  c #B6B6B6",
"~  c #C5C5C5",
"v  c #BBBDC3",
"z  c #D9DBDE",
"j  c #DEDFE1",
"V  c #587DB2",
"^  c #587DB3",
"=  c #E3E3E6",
"v. c #464646",
"K. c #646464",
"j. c #828282",
"n  c #919191",
"s  c #919192",
"|  c #6F97CD",
".  c #CDCDCD",
"b. c #C8C9CE",
"*  c #DCDCDC",
"D  c #D7D8DC",
"P  c #6A90C6",
";  c #DCDCDF",
"P. c #3F3F3F",
"t. c #767778",
"G  c #8A8A8A",
"$. c #8DA9D1",
"3. c #4C5D76",
" . c #729BD1",
"U  c #6D94CA",
"w. c #D5D5D7",
"@. c #D0D1D6",
"=. c #54719A",
"u. c #656565",
"N. c #747476",
"i. c #929292",
">. c #A1A1A3",
"#  c #B0B0B0",
"y  c #BFBFBF",
"T  c #7098CE",
"m  c #CECECE",
"5. c #DDDDDD",
"0  c #D8D9DC",
"5  c #C9CACF",
"/  c #6B91C7",
"1. c #DDDDE0",
",  c #ECECEE",
"+. c #379437",
";. c #7C7C7C",
"J  c #8B8B8B",
"]  c #A4C8A0",
"%. c #7F8FA6",
"w  c #D6D6D6",
")  c #6E95CB",
"R  c #D6D6DB",
"J. c #575757",
"7. c #7A7F86",
"!  c #848484",
"a  c #939394",
"g. c #A2A2A2",
"O  c #C0C0C0",
"`  c #7199CF",
"1  c #CFCFCF",
"G. c #505050",
"p  c #AAAAAA",
"r  c #C8C8C8",
"-  c #DCDEE1",
"Y  c #6F96CC",
"7  c #C3C4CA",
"V. c #585858",
"*. c #7B8087",
"C. c #676767",
"S. c #ADAEAE",
"6. c #C1C1C1",
"%  c #D0D0D0",
"3  c #DFDFDF",
"(  c #6D93C9",
"9  c #C1C1C7",
"h  c #DFDFE2",
"l. c #424242",
"B. c #515151",
"r. c #CED3D3",
"}  c #7E7E7E",
"F  c #8D8D8D",
"h. c #9C9C9C",
"$  c #ABABAB",
"u  c #BABABA",
"X. c #759ED4",
"X  c #C9C9C9",
"o. c #D3D4D7",
"S  c #4D72A7",
"_  c #7097CD",
"L. c #4A4A4A",
"8. c #909192",
"x. c #C2C2C2",
"-. c #C7C9CD",
"'  c #739BD1",
":  c #DBDCDF",
"g  c #EFEFF1",
"+  c #BBBBBB",
/* pixels */
"                . X o O + @ # $ ",
"            % & * = - ; : > , < ",
"          1 2 3 4 5 6 7 8 9 0 q ",
"w e % & r t y u i # p < a s d f ",
"e g h h j k l : > z x q c v b n ",
"m h M N B V C Z A S D f F G H J ",
"K j B L P I U Y T S R n E W Q ! ",
"~ - ^ / ( ) _ ` ' S H J ] [ { } ",
"O ; Z ) | `  ...X.S o.! O.+.@.#.",
"u > A T $.%.&.q *.=.-.;.q :.>.,.",
"<.1.S 2.3.n 4.5.6.7.8.w 5.o n 9.",
"0.q.w.>.e.r.t.y.u.i.p.u.a.s.o d.",
"f.g.h.9.j.r.k.l.z.m x.c.v.b.o n.",
"      m.M.r.N.l.v.B.B.v.l.V.o C.",
"    Z.n.A.i.S.0.k.,.#.k.0.p F D.",
"    F.j.d.G.u.H.H.J.J.H.H.K.L.P."
};
