/* XPM */
static const char *computer_xpm[] = {
/* columns rows colors chars-per-pixel */
"16 16 158 2",
"-. c #B1B3BB",
"K  c #CACACA",
"C  c #587EB3",
"w. c #CACACC",
"6  c #C5C6CB",
"H  c #D4D5D9",
"<. c #D4D5DA",
"#. c #787878",
"<  c #A5A5A5",
">. c #B4B4B4",
"E  c #B9BBC1",
"t  c #C3C3C3",
"9. c #CDCED1",
".. c #749CD2",
"c  c #BEBFC5",
"i. c #CDCED3",
"M  c #567BB0",
"x  c #EBECED",
"l  c #DCDDE0",
"N  c #567BB1",
"   c None",
"[  c #56A950",
"Z. c #8F8F8F",
"q  c #9E9E9E",
"*. c #77A0D6",
"8  c #C1C3C8",
"2  c #CBCBCB",
"Z  c #597FB4",
"b  c #D5D6DA",
"L  c #688EC4",
"n. c #797979",
"f. c #979797",
"i  c #B5B5B5",
"o  c #C4C4C4",
"e  c #D3D3D3",
"I  c #6B92C8",
"S. c #D3D3D5",
"3. c #CECFD4",
"B  c #577CB1",
"k  c #DDDEE1",
"6. c #E2E2E4",
"Q  c #D3D3D7",
"V. c #636363",
"c. c #909090",
"5. c #AEAEAE",
"y. c #AEB1B9",
"{  c #D1D3D7",
"&  c #CCCCCC",
"A  c #5A80B5",
"W  c #B8B9C0",
"d  c #D6D7DB",
"4  c #EAEAEA",
">  c #DBDBDE",
"N. c #6B6B6B",
"%. c #91AFD9",
"G. c #898989",
"&. c #91AFDA",
"f  c #989898",
"a. c #A7A7A7",
"O. c #42A13B",
"@  c #B6B6B6",
"~  c #C5C5C5",
"v  c #BBBDC3",
"z  c #D9DBDE",
"1. c #B1B2BA",
";. c #CFD0D4",
"j  c #DEDFE1",
"V  c #587DB2",
"^  c #587DB3",
"=  c #E3E3E6",
"x. c #646464",
":. c #737373",
"t. c #737374",
"h. c #828282",
"n  c #919191",
"s  c #919192",
"|  c #6F97CD",
".  c #CDCDCD",
"q. c #C8C9CD",
"*  c #DCDCDC",
"D  c #D7D8DC",
"P  c #6A90C6",
";  c #DCDCDF",
"b. c #7B7B7B",
"k. c #858687",
"G  c #8A8A8A",
"v. c #C1C2C4",
" . c #729BD1",
"D. c #DFE0E2",
"U  c #6D94CA",
"7. c #D5D5D7",
"@. c #D0D1D6",
"m. c #747474",
"H. c #838383",
"A. c #929292",
"#  c #B0B0B0",
"y  c #BFBFBF",
"e. c #C9CACC",
"T  c #7098CE",
"m  c #CECECE",
"0  c #D8D9DC",
"5  c #C9CACF",
"/  c #6B91C7",
",. c #DDDDE0",
",  c #ECECEE",
"+. c #379437",
"4. c #6D6D6D",
"j. c #868787",
"J  c #8B8B8B",
"g. c #9A9A9A",
"]  c #A4C8A0",
"0. c #C2C3C8",
"=. c #B3B4BB",
"w  c #D6D6D6",
")  c #6E95CB",
"r. c #D6D6D8",
"z. c #E5E5E8",
"R  c #D6D6DB",
"!  c #848484",
"$. c #91AED8",
"a  c #939394",
"s. c #A2A2A2",
"O  c #C0C0C0",
"`  c #7199CF",
"1  c #CFCFCF",
"p  c #AAAAAA",
"2. c #AFB1B9",
"r  c #C8C8C8",
"8. c #D2D3D5",
"-  c #DCDEE1",
"Y  c #6F96CC",
"7  c #C3C4CA",
"B. c #676767",
"%  c #D0D0D0",
"3  c #DFDFDF",
"F. c #DFDFE1",
"(  c #6D93C9",
"9  c #C1C1C7",
"h  c #DFDFE2",
"C. c #606060",
"}  c #7E7E7E",
"F  c #8D8D8D",
"d. c #9C9C9C",
"$  c #ABABAB",
"u  c #BABABA",
"X. c #759ED4",
"X  c #C9C9C9",
"o. c #D3D4D7",
"S  c #4D72A7",
"_  c #7097CD",
"p. c #686868",
"l. c #9FA0A2",
"'  c #739BD1",
"u. c #AEAFB7",
":  c #DBDCDF",
"g  c #EFEFF1",
"M. c #707070",
"+  c #BBBBBB",
/* pixels */
"                . X o O + @ # $ ",
"            % & * = - ; : > , < ",
"          1 2 3 4 5 6 7 8 9 0 q ",
"w e % & r t y u i # p < a s d f ",
"e g h h j k l : > z x q c v b n ",
"m h M N B V C Z A S D f F G H J ",
"K j B L P I U Y T S R n E W Q ! ",
"~ - ^ / ( ) _ ` ' S H J ] [ { } ",
"O ; Z ) | `  ...X.S o.! O.+.@.#.",
"u > A T $.%.%.&.*.S { } =.-.;.:.",
">.,.S S S S S S S S <.#.1.2.3.4.",
"5.6.7.8.9.7 0.q.w.e.r.t.y.u.i.p.",
"a.s.d.f.n q g.h.! j.k.l.i.i.z.x.",
"      c.J v.3.b.#.n.m.M.N.B.V.C.",
"    Z.A.S.D.: F.M.              ",
"    G.H.} n.m.M.N.              "
};
