/* XPM */
static const char *magnifier_xpm[] = {
/* columns rows colors chars-per-pixel */
"16 16 75 1",
"< c #CACACA",
"> c #D9D9D9",
"V c #ADCBEC",
"O c #A5A5A5",
"a c #E1E1E1",
"c c #C3C9DE",
"  c None",
"Y c #626262",
"v c #6A8EC7",
"j c #8F8F8F",
"S c #CBCBCB",
"z c #F8F8F8",
"d c #797979",
"l c #979797",
"k c #A1A5B3",
"& c #F1F1F1",
"B c #9F9F9F",
"L c #273F8C",
"5 c #CCCCCC",
"q c #DBDBDB",
"F c #EAEAEA",
"b c #7D8A97",
"4 c #D4D4D4",
"w c #E3E3E3",
"3 c #F2F2F2",
"u c #828282",
"0 c #A0A0A0",
"= c #BEBEBE",
"6 c #CDCDCD",
". c #DCDCDC",
"R c #3251B4",
"m c #FAFAFA",
"X c #B7B7B7",
"1 c #D5D5D5",
"8 c #F3F3F3",
"I c #838383",
"K c #3271C4",
"n c #B0B0B0",
"- c #CECECE",
"y c #DDDDDD",
"D c #ECECEC",
"N c #A9A9A9",
"+ c #B8B8B8",
"g c #D6D6D6",
"; c #F4F4F4",
"r c #CFCFCF",
"* c #DEDEDE",
"# c #EDEDED",
"G c #7D7D7D",
"H c #9B9B9B",
"7 c #D7D7D7",
": c #E6E6E6",
"M c #F5F5F5",
"Z c #476183",
"i c #767676",
"T c #858585",
"o c #A3A3A3",
"2 c #B2B2B2",
"$ c #C1C1C1",
"e c #D0D0D0",
"@ c #DFDFDF",
"h c #EEEEEE",
"U c #606060",
"t c #7E7E7E",
"f c #8D8D8D",
"9 c #ABABAB",
"P c #A1A6B5",
"x c #C9C9C9",
", c #E7E7E7",
"J c #3A81DE",
"p c #E0E0E0",
"s c #EFEFEF",
"A c #7F7F7F",
"C c #3D7CCE",
"% c #BBBBBB",
/* pixels */
"       .XoO+@   ",
"     #$%@&&*X$& ",
"     =-;:>>,;<= ",
"    12345<<67891",
"    0qwerrrre:q0",
"    t&.777777y#u",
"    i&p******asd",
"    fg#::::::h4j",
"    klzh####szjx",
"   cvbnmz;MzmNB ",
"  cvVCZASDFxGH8 ",
" cvVJKLPIUYT6   ",
"cvVJKLc         ",
"vVJKLc          ",
"RJKLc           ",
"cLLc            "
};
