/* XPM */
static const char *newspaper_xpm[] = {
/* columns rows colors chars-per-pixel */
"16 16 104 2",
">  c #CACACA",
"2  c #D9D9D9",
"C  c #E8E8E8",
"$. c #787878",
"L  c #878787",
"g  c #A5A5A5",
"z  c #B4B4B4",
"@  c #C3C3C3",
"Z  c #D2D2D2",
"!  c #E1E1E1",
"   c None",
"5  c #9E9E9E",
"F  c #D0D5DC",
"&  c #CBCBCB",
"0  c #DADADA",
"3  c #E9E9E9",
"]  c #797979",
"A  c #888888",
"9  c #979797",
"m  c #D8DADC",
"f  c #C4C4C4",
"j  c #D3D3D3",
"l  c #F1F1F1",
"+. c #727272",
" . c #818181",
"Y  c #6995CE",
"[  c #9F9F9F",
"v  c #BDBDBD",
"^  c #DBDBDB",
"t  c #EAEAEA",
"*. c #F9F9F9",
"|  c #7A7A7A",
"b  c #A7A7A7",
"R  c #AAC0DB",
"7  c #F2F2F2",
"J  c #99B4D8",
"H  c #6A96CF",
"n  c #BEBEBE",
"X  c #CDCDCD",
"S  c #DCDCDC",
"+  c #EBEBEB",
"Q  c #8A8A8A",
"<  c #999999",
"B  c #A8A8A8",
"w  c #B7B7B7",
"6  c #C6C6C6",
";  c #D5D5D5",
"i  c #E4E4E4",
".  c #F3F3F3",
".. c #747474",
"E  c #838383",
"P  c #BFBFBF",
"$  c #CECECE",
"s  c #DDDDDD",
"k  c #ECECEC",
"O. c #7C7C7C",
"e  c #A9A9A9",
"o. c #B8B8B8",
"}  c #C7C7C7",
"r  c #D6D6D6",
"*  c #F4F4F4",
"&. c #757575",
"(  c #91AED4",
"'  c #848484",
"/  c #CAD1DA",
":  c #A2A2A2",
"U  c #A0B7D4",
"K  c #CFD2D6",
"W  c #C0C0C0",
"o  c #CFCFCF",
"{  c #DEDEDE",
")  c #B4C4D9",
"x  c #8C8C8C",
"u  c #9B9B9B",
"1  c #D7D7D7",
"=  c #E6E6E6",
"G  c #7EA2D1",
"N  c #C1C7D0",
"D  c #B2B2B2",
"M  c #A6BCD9",
"h  c #C1C1C1",
"#  c #D0D0D0",
",  c #DFDFDF",
"4  c #EEEEEE",
"%. c #FDFDFD",
"~  c #7E7E7E",
"I  c #8D8D8D",
"-  c #9C9C9C",
"q  c #BABABA",
"_  c #C9C9C9",
"8  c #D8D8D8",
"O  c #F6F6F6",
"X. c #777777",
"T  c #6996CE",
"a  c #959595",
"%  c #A4A4A4",
"d  c #B3B3B3",
"p  c #D1D1D1",
"c  c #E0E0E0",
"y  c #EFEFEF",
"@. c #707070",
"`  c #7F7F7F",
"#. c #9D9D9D",
"V  c #BBBBBB",
/* pixels */
"                                ",
"          . X o O               ",
"        + @ # $ % & *           ",
"      = - ; * * . X : > *       ",
"    , < 1 2 ; 3 4 . . & 5 6 7   ",
"  8 9 0 ; q w e r t y * * & u i ",
"p a s 1 d f g h j h i k l O r z ",
"x c ; : v b n m M N B V C Z x X ",
"A = S r D V F G H H J K X L P d ",
"I n 1 1 2 0 U Y T H R > E W Q ! ",
"@ ~ : X 8 2 ^ / ( ) _ ` n ' 2   ",
"  4 9 ] [ X 0 ^ { } | q  .r     ",
"      8 x ..u $ c X.o.O.;       ",
"          f +.@.#.u $.Z         ",
"            %.z ..&.o           ",
"                O *.            "
};
