/* XPM */
static const char *search_xpm[] = {
/* columns rows colors chars-per-pixel */
"16 16 137 2",
"g. c #E8E8E8",
"^  c #D1FDFF",
"S  c #C2F1FF",
"a  c #8295B8",
"C  c #99B2CC",
"h. c #787878",
"=. c #878787",
"`  c #A5A5A5",
"l  c #DBFFFF",
"b  c #A3BDE5",
"~  c #C5F5FF",
"3  c #FFFFFF",
"a. c #897573",
"R  c #5A5A74",
"N  c #ECFFFF",
"V  c #D9FFFF",
"u. c #CBCBCB",
"@. c #DADADA",
"r. c #DF8840",
"X  c #9CB0CF",
"'  c #FCCB8B",
")  c #7B7F99",
"<  c #F8F8F8",
"k  c #D7FFFF",
"F  c #C6F9FF",
"e. c #C6AC85",
"G  c #FBFFFF",
"p  c #C6F6FF",
"U  c #E8FFFF",
"-  c #BCEEFF",
"W  c #C9C5BF",
"8. c #FDE1BB",
">  c #8891B8",
";  c #C6F3FF",
"Q  c #888BAB",
"c  c #93ACCC",
"o  c #8EA8CE",
".  c #C4C4DA",
"K  c #899BB4",
"[  c #CF8C58",
"   c None",
"7. c #DBDBDB",
"#  c #EAEAEA",
"A  c #A9B3D5",
"9  c #A8D2F3",
"7  c #B0E3FF",
";. c #6B6B6B",
"H  c #F7FFFF",
" . c #96B0CE",
"1. c #5C5C60",
":. c #7A7A7A",
"5  c #BFECFF",
"L  c #BDBDD0",
"3. c #D4D4D4",
",. c #D98543",
"x  c #D1FCFF",
"@  c #B1B5CD",
"<. c #8B86AB",
"1  c #D4D4E7",
"O  c #9EB8E0",
"4. c #DCDCDC",
"P  c #A6C9EF",
"t. c #A87673",
"$  c #FAFAFA",
"|  c #8598BC",
"D  c #B1E4FF",
":  c #A4CFF5",
"O. c #5D5D5D",
"j  c #CDFFFF",
"-. c #7B7B7B",
"]  c #FEB853",
"2. c #999999",
"n  c #AADDFF",
"w  c #CDF6FF",
"g  c #B9E6FF",
"/  c #DCFFFF",
"o. c #6A6C83",
"r  c #B9E3FF",
"_  c #5E5E5E",
"Z  c #6D6D6D",
"*  c #E8FBFF",
">. c #FFB953",
"J  c #DAFFFF",
"t  c #BFF1FF",
"6. c #D6D6D6",
"$. c #D68344",
"e  c #D7F2FF",
"f. c #F4F4F4",
"0. c #57575A",
"z  c #D8FFFF",
"y. c #848484",
"+  c #9DB0D9",
"u  c #C7F9FF",
"y  c #C2F5FF",
"p. c #A2A2A2",
"&. c #817D97",
"{  c #898585",
"m  c #D6FFFF",
"}  c #75758B",
"*. c #6E6E6E",
"T  c #DAEDF3",
"v  c #7D7D7D",
"I  c #C0F2FF",
"B  c #E7FFFF",
"5. c #D7D7D7",
"i. c #F5F5F5",
"d. c #58585A",
"6  c #ACDFFF",
"Y  c #F8FFFF",
"!  c #A9CFF1",
"M  c #E5FFFF",
"w. c #D0D0D0",
"d  c #A6BFE5",
"#. c #FCC989",
"=  c #CDF8FF",
".. c #AEC7E0",
"2  c #C2DAEF",
"j. c #8D8D8D",
"&  c #DDE5F1",
"h  c #BCEFFF",
"(  c #E0EFF5",
",  c #D8D8D8",
"4  c #EAF7FF",
"0  c #7E7E98",
"q. c #868686",
"i  c #C4F7FF",
"9. c #FFB852",
"+. c #959595",
"E  c #FDD6A3",
"s  c #A4A4A4",
"%. c #A77979",
"q  c #B3BCDC",
"X. c #A2B3D1",
"f  c #C9F5FF",
"s. c #8D87A8",
"%  c #B8BAD7",
"8  c #BDF0FF",
/* pixels */
"              . X o O + @ # $   ",
"            % & * = - ; : > , < ",
"          1 2 3 4 5 6 7 8 9 0 , ",
"          q w e r t y u i p a s ",
"          d f g h j k l z x c v ",
"          b f n y m M N B V C Z ",
"          A S D F l N G H J K Z ",
"          L P I i z U Y 3 T R v ",
"        E W Q ! ~ ^ l / ( ) _ ` ",
"      ' ] [ { } |  ...X.o.O.+.@.",
"    #.] $.%.&.*.=.-.Z ;.:.s @.< ",
"  E >.,.%.<.1.2.3.4.5.6.7.# $   ",
"8.9.,.%.<.0.q.w.<               ",
"e.r.t.<.0.y.u.i.                ",
"p.a.s.d.y.u.f.                  ",
"g.s h.j.u.f.                    "
};
