/* XPM */
static const char *server_xpm[] = {
/* columns rows colors chars-per-pixel */
"16 16 126 2",
"}  c #B1B3BB",
"]  c #B6B7BE",
"6  c #C5C6CB",
"Z  c #D9D9DA",
"V  c #D4D5D9",
")  c #787878",
"<  c #A5A5A5",
"F  c #B9BBC1",
"l  c #BEBFC5",
"2. c #CDCED3",
"o. c #D2D2D4",
"A  c #BEBFC6",
"f  c #E1E1E1",
"e  c #E1E1E2",
"X. c #F0F0F0",
"   c None",
"T  c #56A950",
"M  c #8F8F8F",
"q  c #9E9E9E",
"@. c #B2B4BB",
"8  c #C1C3C8",
"2  c #CBCBCB",
"x  c #D5D6DA",
"w  c #E9E9E9",
"9. c #797979",
"t  c #979798",
"K  c #B5B5B5",
"o  c #C4C4C4",
",. c #B0B1B9",
"%. c #CECFD4",
"H  c #D3D3D7",
"r. c #636363",
"<. c #AEB1B9",
">. c #B3B5BD",
"R  c #D1D3D7",
"&  c #CCCCCC",
"G  c #B8B9C0",
"p  c #D6D7DB",
"4  c #EAEAEA",
">  c #DBDBDE",
"w. c #6B6B6B",
"a  c #989898",
"^  c #42A13B",
"@  c #B6B6B6",
"z  c #BBBDC3",
"-. c #D4D4D4",
"#. c #B1B2BA",
"|  c #CFD0D4",
"m  c #C0C1C7",
"=  c #E3E3E6",
"8. c #646464",
" . c #737373",
"c  c #919191",
"i  c #919192",
"W  c #AFAFAF",
"[  c #B4B6BD",
".  c #CDCDCD",
"U  c #B9BAC1",
"*  c #DCDCDC",
"n  c #DCDCDD",
"Q  c #EBEBEB",
";  c #DCDCDF",
"B  c #8A8A8A",
"_  c #A8A8A8",
"S  c #BCBEC4",
"s  c #C6C6C6",
"j  c #C1C2C8",
"(  c #D0D1D6",
"!  c #D5D5D7",
"0. c #747474",
"#  c #B0B0B0",
"r  c #C4C6CB",
"I  c #BABBC2",
"g  c #DDDDDD",
"0  c #D8D9DC",
"5  c #C9CACF",
"v  c #ECECEC",
",  c #ECECEE",
"/  c #379437",
"&. c #6D6D6D",
"C  c #8B8B8B",
":. c #BDBFC5",
"Y  c #A4C8A0",
"{  c #B3B4BB",
"h  c #C2C3C8",
"7. c #E5E5E8",
"J  c #848484",
"u  c #939394",
".. c #A2A2A2",
"~  c #B6B8BE",
"O  c #C0C0C0",
"1  c #CFCFCF",
"L  c #DEDEDE",
"D  c #BBBCC3",
"*. c #9B9B9B",
"$. c #AFB1B9",
"-  c #DCDEE1",
"+. c #B4B5BC",
"7  c #C3C4CA",
"e. c #676767",
"4. c #A3A3A3",
"'  c #B7B9C0",
"%  c #D0D0D0",
"3  c #DFDFDF",
";. c #DFDFE1",
"9  c #C1C1C7",
"t. c #606060",
"E  c #7E7E7E",
"N  c #8D8D8D",
"$  c #ABABAB",
"5. c #C4C5C6",
"k  c #BFC1C6",
"`  c #D3D4D5",
"X  c #C9C9C9",
"O. c #B5B6BE",
"P  c #D8D8D9",
"6. c #D3D4D9",
"3. c #686868",
"y  c #959596",
"=. c #B3B3B3",
"1. c #AEAFB7",
"b  c #E0E0E0",
":  c #DBDCDF",
"d  c #EFEFEF",
"q. c #707070",
"+  c #BBBBBB",
/* pixels */
"                                ",
"          . X o O + @ # $       ",
"      % & * = - ; : > , <       ",
"    1 2 3 4 5 6 7 8 9 0 q       ",
"    2 w w e r t y u i p a       ",
"    s d f g h j k l z x c       ",
"    O v b n m i M N B V C       ",
"    + v 3 Z A S D F G H J       ",
"    K v L P z I U Y T R E       ",
"    W Q g ! F G ~ ^ / ( )       ",
"    _ 4 g ` ' ] [ { } |  .      ",
"    ..X.b o.O.+.@.#.$.%.&.      ",
"    *.=.-.;.:.>.,.<.1.2.3.      ",
"      M B 4.5.6.%.2.2.7.8.      ",
"          E 9.0.q.w.e.r.t.      ",
"                                "
};
