/* XPM */
static const char *server_delete_xpm[] = {
/* columns rows colors chars-per-pixel */
"16 16 147 2",
"{  c #B6B7BE",
"6  c #C5C6CB",
".. c #D1753C",
"Z  c #D9D9DA",
"V  c #D4D5D9",
"x. c #C76426",
"M. c #C4571D",
"<  c #A5A5A5",
")  c #B8521A",
"F  c #B9BBC1",
"l  c #BEBFC5",
"i. c #CDCED3",
"%. c #D2D2D4",
"A  c #BEBFC6",
"f  c #E1E1E1",
"e  c #E1E1E2",
"n. c #BD4D04",
"$. c #F0F0F0",
"@. c #BA4304",
"   c None",
"T  c #56A950",
"M  c #8F8F8F",
"q  c #9E9E9E",
"=. c #B2B4BB",
"8  c #C1C3C8",
"2  c #CBCBCB",
"1. c #EB8A40",
"x  c #D5D6DA",
"w  c #E9E9E9",
"z. c #955F40",
"h. c #797979",
"t  c #979798",
"c. c #E67721",
"K  c #B5B5B5",
"o  c #C4C4C4",
"9. c #B0B1B9",
"u. c #CECFD4",
"H  c #D3D3D7",
"f. c #EE7600",
"s. c #FF7F18",
"0. c #AEB1B9",
"2. c #B94403",
"8. c #B3B5BD",
"R  c #D1D3D7",
"&  c #CCCCCC",
"G  c #B8B9C0",
"p  c #D6D7DB",
"4  c #EAEAEA",
">  c #DBDBDE",
"l. c #6B6B6B",
"X. c #F7B58D",
"a  c #989898",
"^  c #42A13B",
"v. c #EA7905",
"@  c #B6B6B6",
"z  c #BBBDC3",
"5. c #D4D4D4",
"-. c #B1B2BA",
"m  c #C0C1C7",
"b. c #DD6401",
"=  c #E3E3E6",
"_  c #BC4204",
"q. c #BC4205",
"c  c #919191",
"i  c #919192",
"W  c #AFAFAF",
"}  c #B4B6BD",
".  c #CDCDCD",
"U  c #B9BAC1",
"*  c #DCDCDC",
"n  c #DCDCDD",
"Q  c #EBEBEB",
";  c #DCDCDF",
"B  c #8A8A8A",
"m. c #B84503",
"o. c #FED6B8",
"'  c #A8A8A8",
"S  c #BCBEC4",
"s  c #C6C6C6",
"j  c #C1C2C8",
"!  c #D5D5D7",
"w. c #FECDAE",
"j. c #747474",
"#  c #B0B0B0",
"r  c #C4C6CB",
"I  c #BABBC2",
"g  c #DDDDDD",
"0  c #D8D9DC",
"5  c #C9CACF",
"v  c #ECECEC",
"+. c #CB6B2D",
",  c #ECECEE",
"/  c #379437",
"C  c #8B8B8B",
"7. c #BDBFC5",
"Y  c #A4C8A0",
"|  c #B3B4BB",
"h  c #C2C3C8",
"J  c #848484",
"u  c #939394",
"#. c #A2A2A2",
"~  c #B6B8BE",
"O  c #C0C0C0",
"1  c #CFCFCF",
"L  c #DEDEDE",
"D  c #BBBCC3",
"e. c #EF7F18",
"3. c #9B9B9B",
";. c #B8531B",
"-  c #DCDEE1",
"*. c #B4B5BC",
"O. c #F5A872",
"7  c #C3C4CA",
" . c #BA8872",
"r. c #A3A3A3",
"p. c #BB541A",
"[  c #B7B9C0",
"%  c #D0D0D0",
"3  c #DFDFDF",
"6. c #DFDFE1",
"9  c #C1C1C7",
":. c #F6B58D",
"E  c #7E7E7E",
"N  c #8D8D8D",
"$  c #ABABAB",
"t. c #C4C5C6",
"k  c #BFC1C6",
"]  c #D3D4D5",
"X  c #C9C9C9",
"g. c #E16803",
"&. c #B5B6BE",
"P  c #D8D8D9",
"y. c #D3D4D9",
"<. c #FF8621",
">. c #FF924D",
"(  c #CA987F",
"y  c #959596",
"`  c #B94503",
"4. c #B3B3B3",
"b  c #E0E0E0",
":  c #DBDCDF",
"d  c #EFEFEF",
"d. c #F87600",
"k. c #707070",
",. c #FF7711",
"a. c #F49D63",
"+  c #BBBBBB",
/* pixels */
"                                ",
"        . X o O + @ # $         ",
"    % & * = - ; : > , <         ",
"  1 2 3 4 5 6 7 8 9 0 q         ",
"  2 w w e r t y u i p a         ",
"  s d f g h j k l z x c         ",
"  O v b n m i M N B V C         ",
"  + v 3 Z A S D F G H J         ",
"  K v L P z I U Y T R E         ",
"  W Q g ! F G ~ ^ / ( ) _ ` `   ",
"  ' 4 g ] [ { } |  ...X.o.O.+.@.",
"  #.$.b %.&.*.=.-.;.:.>.,.<.1.2.",
"  3.4.5.6.7.8.9.0.q.w.      e._ ",
"    M B r.t.y.u.i.p.a.s.d.f.g.` ",
"        E h.j.k.l.z.x.c.v.b.n.m.",
"                    M.` _ ` m.  "
};
