/* XPM */
static const char *boincsentinels32_xpm[] = {
/* columns rows colors chars-per-pixel */
"32 32 71 1",
"b c Black",
"f c #FFCC33",
"w c #A6CAF0",
"3 c #333399",
"> c #FFFFFF",
"N c #C0DCC0",
"G c #808080",
"K c #A50021",
"i c #FFCC66",
"+ c #CBCBCB",
"H c #CCCC99",
"n c #99CCCC",
"$ c #F8F8F8",
"C c #CC9900",
"9 c #999933",
": c #F1F1F1",
"h c #FFCC99",
"o c #EAEAEA",
"7 c #4D4D4D",
"k c #FF9900",
"c c #CC9933",
"s c #999966",
"X c #669999",
"5 c #3399CC",
". c #E3E3E3",
"r c #555555",
"P c #990000",
"* c #006666",
"p c #EFD6C6",
"g c #A0A0A4",
"t c #FFFBF0",
"j c #FF9933",
"M c #999999",
"8 c #6699CC",
"2 c #CCECFF",
"  c None",
"B c #CC0000",
"6 c #666633",
"O c #336666",
"= c #006699",
", c #DDDDDD",
"1 c #9999CC",
"m c #FF0000",
"F c #393939",
"a c #666666",
"@ c #336699",
"< c #C0C0C0",
"z c #003333",
"d c #FFFF66",
"S c #5F5F5F",
"D c #D7D7D7",
"V c #CCCC00",
"4 c #666699",
"; c #3366CC",
"0 c #808000",
"L c #B2B2B2",
"A c #333333",
"e c #424242",
"u c #FFFF99",
"# c #003366",
"y c #E7E7D6",
"l c #FFCC00",
"J c #66CC99",
"- c #6666CC",
"x c #777777",
"v c #868686",
"I c #161616",
"Z c #663333",
"& c #333366",
"q c #FFFFCC",
"% c #003399",
/* pixels */
"                                ",
"  .X                         oO ",
" +@#X                       $%&@",
" &@*=-      $$$$$$$        $#*&O",
" ;@O#O@   $$$:>$,<12$$    $####;",
"  @O&3#4 $:>$O&&&#&&4X:$ $&&##5 ",
"   @#O3&@1X@OO&##&&&&2::$*&&&;  ",
"    @&&&*&&&&#&666&7::2$##&#@   ",
"     8&#&&&&90:$::::::q###&@    ",
"     :w#&&e0$$$$$:$$29r&&&&:    ",
"    $:2:@r,$$tyuuipt$$:aOO&4$   ",
"    ::::$s$:yqttqudip$:s3&&O:   ",
"   $w&$:::$qqttttuuify$:s@O@2   ",
"   :g3&2:$tuqqqqphuddj:$o4@@#$  ",
"   $g@@s:$qiuqhuuuhdikp$:a44&$  ",
"   :X@@s$$iiduuffffflku$:ezz&:  ",
"   :O4Xx$$fkflfflkjllchvbnz##:  ",
"   :4&&7$$hjlljlfklfammmMmmmN$  ",
"   :O&&e:$pkllkkkklmmmmmammmmB  ",
"   :&##z<$:kVCjjffmmmmmZxmmmmmB ",
"   $$A&ze:$ykjffiSmmmmm>x$mmmmmD",
"    :OA&&F:$ykliimmmmmm>x>mmmmmm",
"    $:&A&#e$::yuummmmm$>x>xmmmmm",
"     :4&&&&r::$$vmmmmm>>G>>mmmmm",
"     ,####%:::H:bmmmm$>>G>><mmmm",
"    :O&&A#::2&##JmmmK$>>G>>>mmmm",
"   :&####:2:&AA&&mmm>>>>G>>>$mmm",
"  2%###& $$1@3##&mm$>>>>x>$>>>mm",
" DO3&&%    $$$$o1LmmmmP>x$mmmmm#",
"@OO3&;            BmmmmPgmmmmmZ&",
" #%#5              BmmmmammmmZ#&",
"  #n                $mmmImmm ;# "
};
