/* XPM */
static const char *boincsentinels16_xpm[] = {
/* columns rows colors chars-per-pixel */
"16 16 142 2",
"y  c #085B80",
"x  c #CDDAE6",
"y. c #696969",
"h  c #ABB080",
"%  c #B3CDB3",
"q  c #A79380",
"7  c #434980",
"A  c #FFFFFF",
"b  c #E0D980",
"S  c #E6CD99",
"+. c #D41500",
",  c #52528C",
"E  c #C8C040",
":. c #D6E6D1",
"&. c #ADADAD",
"l  c #7EB298",
"u. c #9696B9",
"8  c #405C80",
"5  c #AECFF1",
"f. c #DC9696",
"f  c #E4CA94",
"(  c #E0A900",
"N  c #405980",
"e. c #E4A194",
".. c #E0B52B",
"_  c #C9722D",
"i. c #234E80",
"7. c #6AA2B5",
"J  c #AAC0B1",
"=. c #F4E6B1",
"0  c #084080",
"F  c #E0C780",
"t  c #444480",
"j. c #DC1100",
")  c #E0A000",
"h. c #FF716C",
"s. c #868BA0",
"=  c #9BBDE0",
"c. c #5C3042",
"*. c #F4DDA4",
"[  c #D01212",
"@. c #EAE7E0",
"X. c #E0B556",
"s  c #F4EFEA",
"C  c #476E80",
">. c #D62929",
"m  c #F2F2E6",
";. c #E8AFA4",
"w. c #883225",
"V  c #C5C5C5",
"r. c #DAE8D4",
"o  c #5C9AB9",
",. c #004058",
"z. c #DEAAB6",
"#. c #AC0000",
"H  c #CEE3CE",
"4  c #BDDAC4",
"0. c #6A90B5",
"5. c #E6B5B5",
"Y  c #E0C021",
"t. c #FF918B",
"c  c #FFFBF0",
"g  c #FFFEFC",
"d  c #FFFBF2",
"g. c #E2EDDA",
" . c #F5EAD6",
"+  c #3B5D80",
"p  c #004080",
"*  c #599577",
"X  c #003D7B",
"q. c #436880",
";  c #396080",
"}  c #555580",
"G  c #E0C040",
"u  c #D5D5D5",
"   c None",
"a. c #8BA6BD",
"1. c #C4C3AB",
"o. c #EA1E14",
"2  c #0F4986",
"$. c #C6C6D1",
"W  c #C06861",
"e  c #F6F7E9",
"I  c #E0C050",
"-  c #464684",
"r  c #4D6D8E",
"'  c #EC1212",
"D  c #E6E699",
"Q  c #A83861",
"Z  c #55758E",
"6  c #565673",
"B  c #9A9A9A",
"/  c #E0C06D",
"d. c #FF7373",
"R  c #E0A821",
"8. c #6090A6",
"M  c #596080",
"O. c #FF0000",
"v  c #F9EFDA",
"3  c #094980",
"k. c #1E4080",
"~  c #404980",
"4. c #E6EFDD",
"U  c #E7CF3D",
"P  c #576080",
"O  c #9A9AB9",
"3. c #D81300",
"<  c #18528C",
":  c #404380",
"9  c #404080",
".  c #B9B9B9",
"!  c #574850",
"a  c #D5E0EA",
">  c #393973",
"l. c #E01E1E",
"<. c #97ADC4",
"K  c #406080",
"6. c #949494",
"#  c #3B5977",
"k  c #354580",
"x. c #DE2121",
"p. c #8BA8C5",
"$  c #EEEEEE",
"|  c #7D7DA8",
"n  c #E5CC64",
"j  c #405A80",
"2. c #C02C18",
"1  c #124F86",
"%. c #164080",
"T  c #E0B021",
"`  c #EC3712",
"L  c #5C758E",
"^  c #494980",
"9. c #D9E8F8",
"i  c #E0E0EA",
"z  c #B2CCCC",
"-. c #CB6D56",
"w  c #DEE6EE",
"]  c #B6889A",
"@  c #066484",
"{  c #C71B25",
"&  c #9595B3",
/* pixels */
"                                ",
". X o                       O X ",
"  + @ #   $ $ % & * = $   * - + ",
"    ; : > , < 1 2 3 4 5 6 7 8   ",
"      9 0 0 q w w w e r t y     ",
"    u i p a s d f f g h j k     ",
"    l z x d d c v b n m M N B   ",
"  V C Z A S c S D F G H J K L   ",
"  A K P A I U Y T R E W Q ! K   ",
"    ~ ^ A / ( ( ) _ ` ' ] [ {   ",
"    } 9 |  .) ..X.o.O.+.@.O.O.#.",
"    $.%.%.&.*.=.-.O.O.;.:.>.O.O.",
"    A p ,.<.A 1.2.O.3.A 4.5.O.O.",
"  6.7.p 8.9.0.q.w.O.e.A r.A t.O.",
"y.u.i.      p.a.s.O.d.f.g.d.h.j.",
"  k.                O.l.z.O.x.c."
};
