/* XPM */
static const char *boincsentinels48_xpm[] = {
/* columns rows colors chars-per-pixel */
"48 48 233 2",
".. c #DCDAB9",
"W. c #DE030A",
" . c #B4A264",
"zX c #C43A34",
"-X c #CC4E4C",
";. c #F0DE9C",
"*  c #7C9E9C",
"w. c #F0C65C",
".X c #E4EBDF",
"}. c #547EA4",
"6X c #799AC1",
"l  c #94A2B7",
"A  c #2E4667",
"4  c #B7C4D6",
"9X c #DC3234",
"`. c #945E5C",
"~. c #AC6264",
"2  c #8C8EAC",
"a. c #34638F",
"D  c #6F839C",
"0. c #948A74",
"X. c #C9C59C",
"3X c #9CB6DC",
"gX c #BC4C4C",
"!. c #EE100E",
"g  c #3272B6",
"N. c #C4221C",
"k. c #E4E2E3",
"0X c #DC2624",
"S. c #CF0E0F",
"Q  c #2C3A47",
"qX c #BC0E0C",
"R. c #ECD284",
"C. c #ECAE0C",
"E. c #C47A44",
"6. c #CCD2BC",
"4. c #9FB4C7",
"6  c #6187B1",
"(. c #E4A624",
"n. c #BC4340",
"uX c #3C74B8",
"<X c #C41C18",
")  c #A49A6C",
"   c None",
",  c #124574",
"F  c #0C254D",
"*X c #B92D29",
"l. c #FCCA24",
"m  c #4482C6",
"8  c #1E446F",
"=X c #DCC2C4",
"B  c #CCD8E7",
":  c #F4FBFC",
"4X c #CF3737",
"Y. c #AC8284",
"9  c #98ADC4",
"m. c #D12B29",
"b  c #14335E",
"S  c #5C7196",
"OX c #F4B620",
"Z  c #1E3E6D",
"aX c #C4B2AC",
"(  c #8C7E3C",
"v  c #CCFEFC",
"z. c #E4EAB4",
"q. c #F4AA07",
",. c #FCFAE4",
"P. c #CE1514",
"V. c #703A44",
"/  c #6C662C",
"#  c #6C90BC",
"o  c #040234",
"'  c #B7B789",
".  c #FCFDFC",
"@. c #676234",
"z  c #8795A9",
"<  c #3C507C",
"Q. c #E10C0C",
"X  c #D9DBE5",
"@X c #CA5654",
"A. c #BC543C",
"C  c #1C355D",
"d  c #D7E4F1",
"dX c #6C4654",
"sX c #C4A6A4",
"8X c #C46E6C",
"8. c #A8B4B4",
"I. c #BC9294",
"r  c #0B2C59",
"L  c #4E607E",
"y  c #1F3C63",
"_  c #BCB284",
"J. c #F0BC40",
"P  c #243A54",
"f. c #EBA608",
"^  c #7CA6CC",
"-  c #2C5D9F",
"N  c #425E8A",
"o. c #346EAF",
"T  c #152B51",
"{. c #DC9E9C",
",X c #345664",
"yX c #5C4A5C",
"U. c #E01C1C",
"pX c #AC5E5C",
"XX c #AF3637",
"G. c #E21314",
"r. c #406491",
"tX c #FC0E14",
"M  c #9CBEFC",
"H. c #903438",
"'. c #909E98",
"wX c #0CA6DC",
"5. c #FBC83B",
"%  c #5E799E",
"w  c #ECF5FA",
"1  c #40587D",
"y. c #E4DEDC",
"j. c #7C8278",
"~  c #144A8C",
"=  c #235385",
"e. c #5C7074",
"K. c #E49C06",
"F. c #FC0204",
"#X c #746E6C",
":. c #F9D154",
"7  c #0A335F",
"kX c #2C86D4",
"u  c #143B64",
"fX c #B15351",
">. c #F9DA79",
"3  c #CCD4D6",
">  c #89A3BF",
"%X c #AC4C4C",
"a  c #5077A2",
"|  c #84722C",
"5  c #325989",
"xX c #B00204",
"d. c #F4B209",
"9. c #F9BC20",
"v. c #CC9E2C",
"H  c #2D5283",
"&X c #707A80",
"^. c #9CFEFC",
"1. c #FCCF42",
"rX c #AC7E7C",
"-. c #FCEA9D",
"b. c #C46A34",
";X c #D40204",
"_. c #D74747",
"B. c #A43234",
"*. c #787038",
"+. c #A09654",
"&  c #2D4C79",
"jX c #848A8C",
"%. c #F4EBD5",
"=. c #FCF0BA",
"Y  c #D7ECF2",
"h  c #446C98",
"+  c #F4F4F9",
"7X c #94424C",
"k  c #ACB6C4",
"x. c #445757",
"O. c #645A2C",
"R  c #245A9C",
"+X c #D46664",
"s. c #FAC322",
"2X c #CC8A8C",
"W  c #3F473E",
"@  c #BCD2DC",
"x  c #7888A8",
"oX c #04FEFC",
";  c #6C86A8",
"!  c #4E6890",
"0  c #2C65A6",
"c  c #C8CED2",
"j  c #EDEDF8",
"`  c #BCBD9F",
"c. c #ECBE14",
">X c #B4BED4",
"[. c #DCA6A4",
"5X c #CC4644",
"p  c #2A6BB0",
"e  c #8A9BB1",
"K  c #DAE4E4",
"M. c #A41A1C",
"1X c #D48F91",
"[  c #97956C",
" X c #F4DE64",
"iX c #90B8E0",
"s  c #E4ECF7",
"<. c #FBE591",
"}  c #BACCDF",
"$  c #7C99B4",
"p. c #545E54",
"$. c #BFAF74",
"/. c #E4E6F0",
"h. c #1D3250",
"g. c #041E4C",
"|. c #ECD690",
"t. c #777A64",
"). c #D94F4F",
"$X c #DCCCCC",
"{  c #FBF4D5",
"T. c #DCFEFC",
"eX c #CCE2FC",
"]  c #A49E7C",
"E  c #344347",
"J  c #527096",
"#. c #0A3874",
"O  c #6D7E9D",
"i. c #ECB22C",
"7. c #666E60",
"t  c #143D6E",
"u. c #F9BB12",
"U  c #2C3E6C",
"2. c #FCE37E",
"Z. c #E0B034",
"f  c #7A90AB",
"hX c #6C6284",
"D. c #F30305",
"3. c #FCD75D",
":X c #C0D4E8",
"]. c #D4BA60",
"lX c #7C7878",
"G  c #CCCAC4",
"n  c #3C66AC",
"q  c #214C81",
"i  c #427DBE",
"V  c #142E5D",
"I  c #E1F3F6",
"&. c #F7E8B8",
"L. c #C48C3C",
/* pixels */
"      . X                                                                             o O       ",
"    + @ # $                         . . . . . . . . . . . .                         . + % & *   ",
"  X @ = - ; $                 . . . . . . : : . . : . . . . . . .                 . . > , < 1 2 ",
"3 4 = , , 5 6 #           . . . : . . . . : : : : : . . . . . . . . .           . . > 7 8 , 1 1 ",
"9 0 , q , , = % 6     . . . . . : . + + w w w : : . . . : + : . : : . . .     . . e r t y u t 5 ",
"i p = , q 8 , q a a   . . . : + + : : w : . . . + s d s : . . : : : . . .   . : f r t y u u 0 i ",
"  i g = , 8 8 8 8 h a . . + : w : . : . j X 4 k l z e z x e c : + + : . v . . x r u y b b n m M ",
"    i g = 8 8 8 8 8 N % : . w . . . B f < y V r V b C Z A 1 S e : w w w . . D F C C b b 0 m G   ",
"      i p = y , 8 y y H J X w K l O L P C C C C C C C C C r 8 4 + w I . . % F C C C b - i :     ",
"        m g = y y 8 Z y 8 ; f U P y C C b b V b V b b b C A c . Y s . + S r C C C T R p         ",
"          i g = y Z y y C y T b C V b C P E W W W E Q Q W 3 : s s : + ! T y C C V ~ 0           ",
"        .   ^ p q y C y C C C C V P W / ( ) _ ` ` ' ] [ X + s j : { L r y y C C ~ 0 .           ",
"      . . + . } 0 , C y C C V V W |  ...j : : . : : : : w s j ..X.1 r Z y y y ~ o.. . .         ",
"      . : . : . B 0 t C C b C O.+...+ : + + + w + + + + : w w _ @.P Z y y y Z 5 . . . . .       ",
"    . . : : w w . d o.#.C C / $.+ : + + + { %.%.&.%.%.j w + w w X.*.A Z U Z y C 9 . + . . .     ",
"    . . : + : + Y + Y i #.O.$.: + + + %.%.=.{ =.-.;.:.>.&.j + + : X.*.U 8 A U Z < + . . . .     ",
"  . . . + : B B : s + s % [ . + w { %.=.,.,.. { { -.<.:.1.;.%.w + . ` @.q & q & Z e . : . .     ",
"  . . w : . z & 4 : j w w I + + j &.=.{ ,.. . ,.,.=.<.2.3.1.>.j w + w +.1 H H q 8 N . . . . .   ",
"  . . . . s D Z Z 4.. j w + w %.&.=.=.{ . ,.,.,.{ =.-.<.>.3.5.;.+ w : 6.7.5 H H q 8 } . . . .   ",
"  . . + . B O 8 Z y 8.+ w w + %.-.&.=.{ { { =.=.-.-.<.2.2.3.1.9.&.+ + w 0.L 5 H 5 8 x . : . .   ",
". . . + . 4 S U 5 & 7.s + j + ;.<.&.=.=.=.-.-.-.-.-.-.<.2.2.:.q.w.w j . ` e.J r.N & L . : . .   ",
". . + : . k ! H N N t.y.+ w %.>.>.-.=.-.<.<.-.-.<.<.>.3.5.5.u.q.i.%.+ : G p.1 N ! < < . . . .   ",
". . . + : e N a.r.h t.y.: + %.:.:.2.<.2.2.3.3.1.5.s.u.u.u.d.d.f.f.&.w . K W g.T h.V A + . . . . ",
". . . : : x N r.h a j.k.+ w &.5.5.3.1.l.s.s.9.s.9.9.u.u.u.d.d.q.q.z.s Y 3 x.7 r F g.Z w . : . . ",
". . . : : O r.! J % 7.k.+ w &.9.d.d.u.u.9.s.u.u.u.u.u.d.q.u.c.v.b.n.m.M.M.N.B.V.P r q + . . . . ",
". . : : . O U y Z C E 3 . w %.i.C.d.d.u.u.u.u.u.u.d.q.d.u.Z.A.S.D.F.F.n.n.F.F.F.G.H.J : . . . . ",
". . . + . D C T T T h.8.,.+ j J.K.f.d.d.d.d.d.q.d.d.d.c.L.P.F.F.F.F.F.I.I.F.F.F.F.F.U.Y.T.. .   ",
". . + + . f h.T T F F j.+ w + R.K.f.C.d.d.q.d.d.d.d.l.E.W.F.F.F.F.F.Q.G G !.F.F.F.F.F.D.~.^..   ",
"  . : : . 4.C T T T T W /.+ + %.(.K.f.C.d.d.d.u.u.l.L.W.F.F.F.F.F.F.).I Y _.F.F.F.F.F.F.D.`.    ",
"  . . : . d & T T T F T '.. w w ;.K.K.C.9.u.J.s.l.].P.F.F.F.F.F.F.D.[.I I {.F.F.F.F.F.F.F.U.'.  ",
"  . . . + . }.C T T T F W X : w j |.(.f.c.J.1.:. XA.F.F.F.F.F.F.F.Q.w .X.X.XQ.F.F.F.F.F.F.F.XXoX",
"  . . . . . } 8 T T T T r e.+ + w w ;.Z.q.OX5.3.].W.F.F.F.F.F.F.F.+X. k.y.. @XF.F.F.F.F.F.F.G.#X",
"    . . : + . % b T T V T T j.: . j w %.|.J.J.5.E.D.F.F.F.F.F.F.W.$X. k.X . $XD.F.F.F.F.F.F.F.%X",
"    . . + + . X & V T h.V r T &XK + j w + j %..Xn.F.F.F.F.F.F.F._.. . K k.. : _.F.F.F.F.F.F.F.*X",
"      . : : : : $ y h.V V h.r b e.w w + + + + I m.F.F.F.F.F.F.D.=X. . k.y.. . =XD.F.F.F.F.F.F.P.",
"      . . . . d O T T h.V h.7 8 4 : s : : w : d P.F.F.F.F.F.F.-X: . . k.k.. . : -XF.F.F.F.F.F.;X",
"          . . l r C V V T r q @ . s . 4 t.[ _ ' P.F.F.F.F.F.Q.y.. . . k.K . . . X W.F.F.F.F.F.;X",
"        . . 4.r b C C T V ~ :X. Y . >Xy r y E ,X<XF.F.F.F.D.1X. . . . k.k.. . . . 2XD.F.F.F.F.P.",
"      . . 9 r u C b h.b ~ } . s . >Xy F b V r t XXF.F.F.F.-X: . . . . k.k.. . . . : -XF.F.F.F.*X",
"    . : 9 #.y t C V y q } . s : 3Xu F F T T T 7 V.F.F.F.4Xw . . . . . K k.. . . . . w 4XF.F.F.%X",
"  . w > 7 u t u b 8 q 9 . + w . # 5 ~ Z V r T g.Q Q.F.).I : : : . . . k.k.. . . . w : Y 5XF.!.0.",
". .X6X7 t , y b q H D . . : : + . Y 3X# i n - - p 7X<X8X_.9X9X).1Xw . K k.. w 1X_.0X0X_.@XqXH.wX",
"} 6X#., 8 u b = a.}.  . . . . : + . . . . s d B eX4.qXF.F.F.F.F.D.4X/..Xs k.m.D.F.F.F.F.F.P.N , ",
"5 , , , u u 0 o.6     . . . . + . + . : . . . : . . rXtXF.F.F.F.F.F.).I K _.F.F.F.F.F.F.tXyX, b ",
"8 , 8 , u 0 uXiX          . . . . . . + . : . : . . v pXtXF.F.F.F.F.D.aXsXD.F.F.F.F.F.D.dX, 7 y ",
"  8 u 8 p i 6X                  . . . . . . . . . . . oX`.U.F.F.F.F.F.fXgXF.F.F.F.F.U.hX, V C S ",
"    C Z uXiX                            . . . . . . .     jXgX!.F.F.F.S.qXF.F.F.!.XXjXkX8 T L   ",
"                                                            oXlXfXzXP.xXxXP.*XfX#XoX            "
};
