/* XPM */
static const char *chevronexpanded_xpm[] = {
/* columns rows colors chars-per-pixel */
"16 16 34 1",
"; c #F5F7FC",
"* c #FFFFFF",
"X c #9EADC3",
"1 c #DAE3F4",
". c #E4E8EF",
"8 c #97A6BC",
"9 c #C4D3EE",
"7 c #C9D7F0",
"< c #E0E8F6",
", c #E5ECF8",
"  c None",
"@ c #98A7BB",
"= c #FCFDFE",
"# c #96A4BA",
"2 c #354963",
"w c #94A4B8",
"+ c #99A8BE",
"0 c #95A5B9",
"r c #B8CAEB",
"5 c #CFDBF1",
"4 c #D4DFF3",
"> c #EBF0F9",
": c #F0F4FB",
"& c #9EAEC4",
"$ c #94A3B8",
"O c #9CABC0",
"t c #B5C8EA",
"q c #BFD0ED",
"6 c #9AA8BE",
"% c #C7CCD4",
"- c #F9FAFD",
"o c #9DACC2",
"3 c #9DACC3",
"e c #BBCDEC",
/* pixels */
"                ",
"                ",
"  .XoO+@#$$$%   ",
"  &*=-;:>,<12   ",
"  3=-;:>,<142   ",
"  O-;:>,<1452   ",
"  6;:>,<14572   ",
"  8:>22222792   ",
"  0>,<14579q2   ",
"  w,<14579qe2   ",
"  w<14579qer2   ",
"  w14579qert2   ",
"  %222222222%   ",
"                ",
"                ",
"                "
};
