/* XPM */
static const char *computer_add_xpm[] = {
/* columns rows colors chars-per-pixel */
"16 16 165 2",
"K  c #CACACA",
"x. c #B6D49C",
"C  c #587EB3",
"y. c #CACACC",
"=. c #A1B49A",
"6  c #C5C6CB",
"H  c #D4D5D9",
"z. c #4C7B31",
"4. c #B4D495",
"#. c #787878",
"<  c #A5A5A5",
"N. c #3B6C1E",
"<. c #B4B4B4",
"E  c #B9BBC1",
"t  c #C3C3C3",
"e. c #CDCED1",
".. c #749CD2",
"c  c #BEBFC5",
"M  c #567BB0",
"x  c #EBECED",
"l  c #DCDDE0",
"N  c #567BB1",
"   c None",
">. c #8EA583",
"[  c #56A950",
"A. c #8F8F8F",
"q  c #9E9E9E",
"*. c #77A0D6",
"8  c #C1C3C8",
"2  c #CBCBCB",
"Z  c #597FB4",
"b  c #D5D6DA",
"L  c #688EC4",
"I. c #797979",
"j. c #979797",
"i  c #B5B5B5",
"o  c #C4C4C4",
"a. c #8CBC65",
"e  c #D3D3D3",
"I  c #6B92C8",
"D. c #D3D3D5",
"m. c #CECFD4",
"B  c #577CB1",
"k  c #DDDEE1",
"0. c #E2E2E4",
"Q  c #D3D3D7",
"5. c #D0E6BA",
"b. c #909090",
"2. c #5B817C",
"9. c #AEAEAE",
"{  c #D1D3D7",
"&  c #CCCCCC",
"A  c #5A80B5",
"W  c #B8B9C0",
"d  c #D6D7DB",
"4  c #EAEAEA",
">  c #DBDBDE",
"Y. c #6B6B6B",
"%. c #91AFD9",
"L. c #898989",
"&. c #91AFDA",
"f  c #989898",
"f. c #A7A7A7",
"O. c #42A13B",
"@  c #B6B6B6",
"~  c #C5C5C5",
"v  c #BBBDC3",
"z  c #D9DBDE",
"j  c #DEDFE1",
"V  c #587DB2",
"^  c #587DB3",
"=  c #E3E3E6",
":. c #5D8646",
"K. c #8DBA64",
",. c #737373",
"7. c #578F2D",
"l. c #828282",
"n  c #919191",
"s  c #919192",
"|  c #6F97CD",
".  c #CDCDCD",
"B. c #8BBA62",
"t. c #C8C9CD",
"*  c #DCDCDC",
"D  c #D7D8DC",
"P  c #6A90C6",
";  c #DCDCDF",
"M. c #7B7B7B",
"d. c #396B1B",
"G  c #8A8A8A",
"n. c #C1C2C4",
" . c #729BD1",
"F. c #DFE0E2",
"-. c #6F935A",
"U  c #6D94CA",
"q. c #D5D5D7",
"@. c #D0D1D6",
"J. c #538C28",
"v. c #376B19",
"U. c #747474",
"V. c #87BA60",
"P. c #838383",
"S. c #929292",
"#  c #B0B0B0",
"y  c #BFBFBF",
"T  c #7098CE",
"m  c #CECECE",
"0  c #D8D9DC",
"5  c #C9CACF",
"/  c #6B91C7",
"1. c #DDDDE0",
",  c #ECECEE",
"+. c #379437",
"J  c #8B8B8B",
"k. c #9A9A9A",
"8. c #4F6C3F",
"]  c #A4C8A0",
"r. c #C2C3C8",
"w  c #D6D6D6",
")  c #6E95CB",
"R  c #D6D6DB",
"s. c #8FBC67",
"!  c #848484",
"$. c #91AED8",
"a  c #939394",
"g. c #A2A2A2",
"O  c #C0C0C0",
"`  c #7199CF",
"1  c #CFCFCF",
"p  c #AAAAAA",
"r  c #C8C8C8",
"w. c #D2D3D5",
"-  c #DCDEE1",
"Y  c #6F96CC",
"7  c #C3C4CA",
"u. c #608948",
"c. c #B2D295",
"3. c #81AB61",
"%  c #D0D0D0",
"3  c #DFDFDF",
"G. c #DFDFE1",
"(  c #6D93C9",
"9  c #C1C1C7",
"h  c #DFDFE2",
"}  c #7E7E7E",
"F  c #8D8D8D",
"C. c #87B960",
"h. c #9C9C9C",
"$  c #ABABAB",
"u  c #BABABA",
"X. c #759ED4",
"X  c #C9C9C9",
"o. c #D3D4D7",
"S  c #4D72A7",
"_  c #7097CD",
";. c #668E4F",
"p. c #B1D692",
"'  c #739BD1",
":  c #DBDCDF",
"i. c #B1D390",
"g  c #EFEFF1",
"H. c #707070",
"Z. c #386B1B",
"6. c #8FBB6A",
"+  c #BBBBBB",
/* pixels */
"                . X o O + @ # $ ",
"            % & * = - ; : > , < ",
"          1 2 3 4 5 6 7 8 9 0 q ",
"w e % & r t y u i # p < a s d f ",
"e g h h j k l : > z x q c v b n ",
"m h M N B V C Z A S D f F G H J ",
"K j B L P I U Y T S R n E W Q ! ",
"~ - ^ / ( ) _ ` ' S H J ] [ { } ",
"O ; Z ) | `  ...X.S o.! O.+.@.#.",
"u > A T $.%.%.&.*.S =.-.;.:.>.,.",
"<.1.S S S S S S S 2.3.4.5.6.7.8.",
"9.0.q.w.e.7 r.t.y.u.i.p.  a.s.d.",
"f.g.h.j.n q k.l.! z.x.      c.v.",
"      b.J n.m.M.#.N.B.V.  C.s.Z.",
"    A.S.D.F.: G.H.v.J.K.c.K.J.v.",
"    L.P.} I.U.H.Y.  v.v.v.v.v.  "
};
