/* XPM */
static const char *computer_key_xpm[] = {
/* columns rows colors chars-per-pixel */
"16 16 182 2",
"K  c #CACACA",
"C  c #587EB3",
"6  c #C5C6CB",
"H  c #D4D5D9",
"[  c #D6B78C",
"A. c #D1B9A7",
"e. c #F6DA55",
"0. c #F6E06A",
"<  c #A5A5A5",
"6. c #B4B4B4",
"Q  c #C5AB86",
"t  c #C3C3C3",
"p. c #CDCED1",
"O. c #749CD2",
"c  c #BEBFC5",
"M  c #567BB0",
"x  c #EBECED",
"l  c #DCDDE0",
"f. c #E1BA60",
"N  c #567BB1",
"H. c #F8E6A1",
"$. c #FBF0A3",
"   c None",
"R. c #8F8F8F",
"q  c #9E9E9E",
"U. c #6C6763",
"V. c #CA913C",
">. c #77A0D6",
"8  c #C1C3C8",
"2  c #CBCBCB",
"Z  c #597FB4",
"b  c #D5D6DA",
"L  c #688EC4",
"}  c #FBF3C9",
"`. c #797979",
"b. c #979797",
"(. c #9D6124",
" . c #D0BDA5",
"{  c #ECC96F",
"i  c #B5B5B5",
"P. c #806852",
"o  c #C4C4C4",
"9. c #F4DD89",
"e  c #D3D3D3",
"I  c #6B92C8",
"W. c #D3D3D5",
"B  c #577CB1",
"k  c #DDDEE1",
"y. c #E2E2E4",
"!  c #D3D3D7",
"Y. c #636363",
"D. c #909090",
"k. c #F5D855",
"t. c #AEAEAE",
"[. c #C18A3F",
"&  c #CCCCCC",
"A  c #5A80B5",
"d  c #D6D7DB",
"4  c #EAEAEA",
">  c #DBDBDE",
";. c #91AFD9",
"). c #898989",
":. c #91AFDA",
"f  c #989898",
"x. c #A7A7A7",
"E  c #B8955D",
"@  c #B6B6B6",
"^  c #C5C5C5",
"v  c #BBBDC3",
"z  c #D9DBDE",
"j  c #DEDFE1",
"V  c #587DB2",
"B. c #F6D946",
"/  c #587DB3",
"z. c #7C624F",
"=  c #E3E3E6",
"w. c #F6DF5F",
"S. c #646464",
"m. c #CC9948",
"%. c #F0D480",
"K. c #F6D647",
"2. c #F8E89A",
"n  c #919191",
"s  c #919192",
"3. c #F0D17E",
"=. c #8E755A",
"W  c #D9AE5F",
"X. c #6F97CD",
".  c #CDCDCD",
"*  c #DCDCDC",
"D  c #D7D8DC",
"P  c #6A90C6",
";  c #DCDCDF",
"4. c #F6E280",
"L. c #CA933D",
"G  c #8A8A8A",
"@. c #858077",
"~. c #F9E986",
"F. c #C1C2C4",
"o. c #729BD1",
"Q. c #DFE0E2",
"U  c #6D94CA",
"u. c #D5D5D7",
"M. c #F6E299",
"s. c #CBBEAC",
"j. c #F7DD5B",
"|  c #DDB957",
"_. c #838383",
"E. c #929292",
"g. c #F2D95E",
"I. c #6F6A67",
"#  c #B0B0B0",
"y  c #BFBFBF",
"T  c #7098CE",
"m  c #CECECE",
"0  c #D8D9DC",
"5  c #C9CACF",
"(  c #6B91C7",
"7. c #DDDDE0",
",  c #ECECEE",
",. c #B0925D",
"J  c #8B8B8B",
"a. c #C2C3C8",
"w  c #D6D6D6",
"_  c #6E95CB",
"~  c #848484",
"l. c #CD8233",
"-. c #91AED8",
"a  c #939394",
"c. c #A2A2A2",
"O  c #C0C0C0",
"r. c #C87E3A",
"'  c #7199CF",
"1  c #CFCFCF",
"h. c #F6DB4E",
"]. c #CC9B49",
"5. c #D39642",
"n. c #B19974",
"/. c #CC923A",
"p  c #AAAAAA",
"r  c #C8C8C8",
"i. c #D2D3D5",
"-  c #DCDEE1",
"Y  c #6F96CC",
"7  c #C3C4CA",
"!. c #E1B868",
"'. c #A08153",
"d. c #DCB162",
"%  c #D0D0D0",
"3  c #DFDFDF",
"J. c #F2D238",
")  c #6D93C9",
"9  c #C1C1C7",
"h  c #DFDFE2",
"T. c #606060",
"<. c #F9EEA9",
".. c #7E7E7E",
"F  c #8D8D8D",
"v. c #9C9C9C",
"q. c #F7E273",
"$  c #ABABAB",
"u  c #BABABA",
"*. c #DCA555",
"+. c #759ED4",
"X  c #C9C9C9",
"S  c #4D72A7",
"`  c #7097CD",
"N. c #F5DC53",
"8. c #97866B",
"^. c #F5D94D",
"C. c #CF8A43",
"&. c #ECC77E",
"{. c #A56725",
"G. c #DDB262",
"#. c #EAC15E",
"]  c #739BD1",
":  c #DBDCDF",
"g  c #EFEFF1",
"R  c #D6D5DA",
"Z. c #D28B44",
"1. c #F8E67E",
"+  c #BBBBBB",
/* pixels */
"                . X o O + @ # $ ",
"            % & * = - ; : > , < ",
"          1 2 3 4 5 6 7 8 9 0 q ",
"w e % & r t y u i # p < a s d f ",
"e g h h j k l : > z x q c v b n ",
"m h M N B V C Z A S D f F G H J ",
"K j B L P I U Y T S R E W Q ! ~ ",
"^ - / ( ) _ ` ' ] S [ { } |  ...",
"O ; Z _ X.' o.O.+.@.#.$.%.&.*.=.",
"u > A T -.;.;.:.>.,.<.1.2.3.4.5.",
"6.7.S S S S S S S 8.9.0.q.w.e.r.",
"t.y.u.i.p.7 a.s.d.f.g.h.j.k.l.z.",
"x.c.v.b.n q n.m.M.N.B.V.C.Z.A.S.",
"      D.J F.G.H.J.K.L.P.I.U.Y.T.",
"    R.E.W.Q.!.~.^./.(.          ",
"    )._...`.'.].[.{.            "
};
