/* XPM */
static const char *computer_error_xpm[] = {
/* columns rows colors chars-per-pixel */
"16 16 193 2",
"K  c #CACACA",
"C  c #587EB3",
"6  c #C5C6CB",
"H  c #D4D5D9",
"e. c #F8E382",
"2. c #F8E68E",
"F. c #F8E690",
"E  c #DCC277",
";. c #787878",
"<  c #A5A5A5",
"8. c #B4B4B4",
"y. c #CF9E43",
"Q  c #B9BBC1",
"t  c #C3C3C3",
"$. c #EBD7A4",
"g. c #CDCED1",
"@. c #749CD2",
"c  c #BEBFC5",
"[  c #799DCB",
"M  c #567BB0",
"x  c #EBECED",
"l  c #DCDDE0",
"N  c #567BB1",
"b. c #CDCBCB",
"c. c #F0DEB6",
"   c None",
"R  c #7E8C8F",
".. c #56A950",
"|  c #B7A36E",
"Q. c #8F8F8F",
"q  c #9E9E9E",
"@X c #BD7925",
"<. c #D0AE5A",
"8  c #C1C3C8",
"2  c #CBCBCB",
"Z  c #597FB4",
"b  c #D5D6DA",
"L  c #688EC4",
"j. c #DFBD7B",
"B. c #979797",
"'. c #FBF3D4",
"k. c #F9EAA2",
"i  c #B5B5B5",
"o  c #C4C4C4",
"H. c #D5B88E",
"e  c #D3D3D3",
"I  c #6B92C8",
"~. c #D3D3D5",
"x. c #F7E177",
"i. c #CECFD4",
"B  c #577CB1",
"k  c #DDDEE1",
"s. c #E2E2E4",
"~  c #D3D3D7",
"4. c #C9AA6B",
"/. c #F6ECDD",
"U. c #F5DB5B",
"C. c #C49D54",
"K. c #909090",
"D. c #F5DB5D",
"#. c #A7AA96",
"a. c #AEAEAE",
"W. c #726656",
"X. c #D1D3D7",
"&  c #CCCCCC",
"A  c #5A80B5",
"!  c #B8B9C0",
"d  c #D6D7DB",
"4  c #EAEAEA",
">  c #DBDBDE",
"oX c #C1812B",
">. c #91AFD9",
"{. c #898989",
"*. c #61A33F",
"W  c #98958C",
"f  c #989898",
"m. c #A7A7A7",
"@  c #B6B6B6",
"/  c #C5C5C5",
"v  c #BBBDC3",
"z  c #D9DBDE",
"6. c #CFD0D4",
"j  c #DEDFE1",
"E. c #BA8032",
"0. c #4E72A6",
"V  c #587DB2",
"(  c #587DB3",
"=  c #E3E3E6",
"J. c #646464",
"7. c #737373",
"n  c #919191",
"s  c #919192",
"l. c #F6DC61",
"Y. c #C28832",
"r. c #C28833",
"O. c #6F97CD",
".  c #CDCDCD",
"*  c #DCDCDC",
"D  c #D7D8DC",
"v. c #C5984E",
"P  c #6A90C6",
";  c #DCDCDF",
"1. c #F8EBB4",
"{  c #C6AE66",
"G  c #8A8A8A",
"P. c #E1C28E",
"+. c #729BD1",
"5. c #B2B3B9",
"U  c #6D94CA",
"d. c #D5D5D7",
"-. c #D0D1D6",
"3. c #EEDDB5",
"XX c #C0822F",
"L. c #C6B18C",
"OX c #C07F29",
"}. c #838383",
"!. c #929292",
"#  c #B0B0B0",
"y  c #BFBFBF",
"T  c #7098CE",
"m  c #CECECE",
"0  c #D8D9DC",
"5  c #C9CACF",
"A. c #F7E074",
")  c #6B91C7",
"9. c #DDDDE0",
",  c #ECECEE",
"=. c #379437",
"q. c #A4966D",
"p. c #6D6D6D",
"S. c #F5DA58",
"J  c #8B8B8B",
"V. c #9F9E9C",
" X c #C18632",
" . c #A4C8A0",
"w  c #D6D6D6",
"`  c #6E95CB",
"Z. c #EFDBAB",
"h. c #C7BBA4",
"|. c #BF8937",
"^  c #848484",
":. c #91AED8",
"a  c #939394",
"M. c #A2A2A2",
"t. c #FAEDAC",
"}  c #EDDBAB",
"O  c #C0C0C0",
"$X c #BC7622",
"]  c #7199CF",
"1  c #CFCFCF",
"+X c #BF7D28",
"p  c #AAAAAA",
"T. c #F6DE6A",
"z. c #C28731",
"r  c #C8C8C8",
"f. c #D2D3D5",
"-  c #DCDEE1",
"_. c #F8EAAB",
"&. c #D2AC54",
"). c #F8EAAC",
"Y  c #6F96CC",
"7  c #C3C4CA",
"`. c #F8EAAD",
"u. c #B9AA92",
"#X c #BD7723",
"%  c #D0D0D0",
"3  c #DFDFDF",
".X c #C08431",
"G. c #E1C192",
"_  c #6D93C9",
"9  c #C1C1C7",
"h  c #DFDFE2",
"R. c #F6E7B1",
"o. c #7E7E7E",
"I. c #F9E897",
"F  c #8D8D8D",
"N. c #9C9C9C",
"$  c #ABABAB",
"u  c #BABABA",
"%. c #FBF4DC",
"X  c #C9C9C9",
"S  c #4D72A7",
"'  c #7097CD",
"w. c #ECD9AC",
"]. c #E4C8A4",
"(. c #F9EEBD",
"^. c #CB994A",
"n. c #686868",
"[. c #BE7B26",
",. c #9DAFC4",
":  c #DBDCDF",
"g  c #EFEFF1",
"+  c #BBBBBB",
/* pixels */
"                . X o O + @ # $ ",
"            % & * = - ; : > , < ",
"          1 2 3 4 5 6 7 8 9 0 q ",
"w e % & r t y u i # p < a s d f ",
"e g h h j k l : > z x q c v b n ",
"m h M N B V C Z A S D f F G H J ",
"K j B L P I U Y T R E W Q ! ~ ^ ",
"/ - ( ) _ ` ' ] [ { } |  ...X.o.",
"O ; Z ` O.] +.@.#.$.%.&.*.=.-.;.",
"u > A T :.>.>.,.<.1.2.3.4.5.6.7.",
"8.9.S S S S 0.q.w.e.r.t.y.u.i.p.",
"a.s.d.f.g.7 h.j.k.l.z.x.c.v.b.n.",
"m.M.N.B.n V.C.Z.A.S.S.D.F.G.H.J.",
"      K.J L.P.I.l.U.Y.U.T.R.E.W.",
"    Q.!.~.^./.(.)._._._.`.'.].[.",
"    {.}.o.|. X.XXXoXOX+X[.@X#X$X"
};
