/* XPM */
static const char *copy_xpm[] = {
/* columns rows colors chars-per-pixel */
"16 16 103 2",
"|  c #9BAFCC",
"Q  c #7392D1",
"4  c #AAC1EF",
"e  c #3565C5",
"5  c #A0B9EF",
"<  c #D2DEF0",
"f  c #2B57B1",
"X. c #214389",
"H  c #D7DFEA",
"%. c #21438A",
"/  c #BECEF0",
"T  c #5183D1",
"g  c #CDD7ED",
")  c #99ACC7",
"v  c #D2DBF1",
"k  c #EBEFF6",
"G  c #F0F3F8",
"@  c #FFFFFF",
"d  c #B2C9F0",
">  c #BADAFF",
"O. c #2954AA",
"V  c #6897D5",
"m  c #2954AC",
"i  c #81AEE5",
"}  c #9CB0CE",
".. c #97A9C4",
"h  c #97A6BB",
"3  c #ABC2EF",
"-  c #BAC5D4",
"Y  c #5C8CDA",
" . c #9AADCA",
":  c #A9B9CF",
"$  c #6682A5",
"B  c #6E9CDA",
"&. c #204186",
"A  c #DBE4F7",
"   c None",
"J  c #CFD9E6",
"#. c #234896",
"7  c #D9E4F9",
"[  c #5579C1",
"+  c #DEE2E9",
"`  c #6485C9",
"*  c #FCFDFE",
"&  c #AFBED4",
"W  c #354963",
"q  c #E6EAF3",
"w  c #85A7EB",
"0  c #F0F2F8",
".  c #B2C2D8",
"j  c #F5F6FB",
"c  c #8AAEFC",
";  c #5B728F",
"o. c #476EBA",
"b  c #608EE7",
"6  c #92B0ED",
"y  c #9FC5FA",
"x  c #9CB5E7",
"L  c #BFCBDD",
"a  c #A6BDEC",
"+. c #2750A2",
"$. c #22468F",
"M  c #2750A4",
"^  c #D3DEF5",
"X  c #AEBFD4",
"o  c #A9B8CE",
"C  c #90AAE0",
"F  c #254D9D",
"n  c #2A57B3",
"E  c #254A98",
"I  c #7FA7F3",
"~  c #EAEFFB",
"1  c #93A2B7",
"#  c #A2B1C7",
"_  c #234792",
"r  c #CFDBF1",
"S  c #C5D3F2",
"%  c #D9DDE2",
"=  c #96A6BB",
"P  c #829FD8",
"N  c #F7F8FB",
"(  c #AFC3ED",
"Z  c #F0F4FB",
"8  c #A3B2C7",
"O  c #A3B2C8",
"t  c #9CABC1",
",  c #AED0FF",
"]  c #22458E",
"R  c #9AAECA",
"s  c #729AEA",
"u  c #8EB8F0",
"{  c #F6F9FD",
"!  c #FBFDFE",
"D  c #9AAECC",
"K  c #C7D2E1",
"2  c #AEC4F0",
"@. c #254C9B",
"p  c #73A1DE",
"z  c #D6DEEC",
"l  c #E0E6F1",
"'  c #98ABC6",
"9  c #F9FAFC",
"U  c #6E97E7",
/* pixels */
"                                ",
". . X X o O +                   ",
". @ @ @ @ # $ %                 ",
"& @ @ @ * = - ; %               ",
": @ > , < 1 2 3 4 5 6 6 7       ",
"8 @ @ 9 0 q 2 @ @ @ @ w e r     ",
"t @ y u i p a @ @ @ @ s d f g   ",
"h * j k l z x @ c c v b n m M   ",
"1 N i p B V C @ @ @ Z A S D F   ",
"1 G H J K L P @ I U Y T T R E   ",
"1 W W W W W Q @ ! ~ ^ / ( ) _   ",
"            ` @ Y T T T T ' ]   ",
"            [ { } |  .) ' ..X.  ",
"            o.O.O.+.@.#.$.%.&.  ",
"                                ",
"                                "
};
