/* XPM */
static const char *pause_xpm[] = {
/* columns rows colors chars-per-pixel */
"16 16 25 1",
"= c #7DA3EF",
"4 c #A0BCF3",
". c #8DB3FD",
"2 c #093085",
"% c #81A8F3",
"$ c #254EA2",
"o c #759AE3",
"  c None",
": c #789EEA",
"# c #DAE5FB",
"< c #749BE7",
"O c #D5E1FC",
"& c #D3E1FB",
"; c #163E92",
"5 c #052C81",
"* c #1E469A",
"+ c #2D55AA",
"1 c #AFC9F9",
"- c #C8D7FB",
"X c #8AB0FA",
"6 c #062D82",
"@ c #86ADF6",
"3 c #7097E3",
"> c #BBD0F9",
", c #0F368B",
/* pixels */
"                ",
"                ",
"                ",
"    .Xo .Xo     ",
"    XO+ XO+     ",
"    @#$ @#$     ",
"    %&* %&*     ",
"    =-; =-;     ",
"    :>, :>,     ",
"    <12 <12     ",
"    345 345     ",
"    o65 o65     ",
"                ",
"                ",
"                ",
"                "
};
