/* XPM */
static const char *play_xpm[] = {
/* columns rows colors chars-per-pixel */
"16 16 22 1",
"& c #418338",
"+ c #B0DAA3",
"1 c #246F1A",
". c #D9EDD6",
"O c #5A9452",
"= c #3D832F",
"@ c #53904B",
"2 c #1B6811",
"* c #68B05D",
"  c None",
", c #0F6004",
"% c #5AA250",
"; c #18660B",
": c #E0EADE",
"- c #2C7320",
"3 c #146309",
"X c #609858",
"> c #377C2E",
"o c #39762F",
"# c #76BF6B",
"< c #2E7523",
"$ c #4C8A43",
/* pixels */
"                ",
"     .          ",
"     X.         ",
"     Xo.        ",
"     O+o.       ",
"     @#+o.      ",
"     $##%o.     ",
"     &*%=-;:    ",
"     >%=-,:     ",
"     <=-,:      ",
"     1-,:       ",
"     2,:        ",
"     3:         ",
"     :          ",
"                ",
"                "
};
