/* XPM */
static const char *refresh_xpm[] = {
/* columns rows colors chars-per-pixel */
"16 16 94 2",
"h  c #8DC786",
"=  c #68A860",
"$  c #5FAD56",
"%  c #5AA650",
"`  c #8BC785",
"9  c #6CBC60",
"1  c #9CD094",
"s  c #256522",
"U  c #6BAC63",
"   c None",
" . c #377B32",
"t  c #95CC8D",
".. c #32742C",
"}  c #6EB066",
"O  c #499141",
"(  c #9FD196",
"S  c #1E5B1B",
"6  c #87C480",
">  c #68B95E",
"P  c #85C77B",
"]  c #6CAD65",
"-  c #62A25B",
"A  c #215F1E",
"v  c #5EAB54",
"i  c #85C47E",
")  c #96CD8F",
"o  c #4F9947",
"R  c #569750",
"E  c #83C479",
"c  c #246320",
"5  c #8FC987",
"K  c #8FC988",
"*  c #4D9645",
"|  c #68AA61",
"z  c #4F9049",
"/  c #7CBD73",
"<  c #92CA89",
"V  c #55A14D",
"'  c #81BE7A",
"^  c #2A6B26",
"D  c #4B9343",
"u  c #8BC683",
"g  c #9CCF94",
"p  c #7FC179",
"y  c #90CA88",
"Y  c #8BC383",
"&  c #539E4B",
"T  c #89C682",
"r  c #9ACF92",
"@  c #6ABB5F",
"b  c #89C380",
"#  c #65B45B",
"B  c #23611F",
"!  c #82C27A",
"w  c #A4D49B",
";  c #3A7E34",
"X  c #519B49",
"[  c #51924B",
"d  c #7EBF75",
"n  c #8AC483",
"k  c #408639",
",  c #83C379",
".  c #57A34E",
"+  c #6EC063",
"8  c #2C6D27",
"x  c #4A8B45",
"2  c #9ED195",
"N  c #276623",
"M  c #3E8337",
"F  c #468E3F",
"0  c #67B65C",
"f  c #A1D298",
"Z  c #3C8035",
"q  c #8EC985",
"Q  c #9FD297",
"m  c #448B3D",
"J  c #8EC686",
"e  c #98CE8F",
":  c #6DBE62",
"C  c #42883B",
"_  c #91CA8A",
"W  c #A7D79E",
"l  c #33762E",
"L  c #76B36F",
"H  c #70C264",
"j  c #65A75E",
"a  c #4C8D47",
"{  c #296824",
"4  c #94CB8C",
"G  c #73C667",
"3  c #99CF90",
"7  c #54954E",
"~  c #63A45D",
"I  c #81C277",
/* pixels */
"                  . X           ",
"                  o O           ",
"    + @ # $ % & * = - ;         ",
"  : > , < 1 2 3 4 5 6 7 8       ",
"9 0 q w e r t y u i p a s       ",
"# d f g h j k ; l z x c         ",
"v b t n m M       N B           ",
"V o O C Z         A S v . X D m ",
"* F k ; l G H         V o O C Z ",
"          + @       & * J K L l ",
"        : P I v . X U Y 5 T R 8 ",
"      9 E W w Q r t y ! i ~ ^ s ",
"      # / ( g ) _ ` ' ] [ { c   ",
"        . } | m M  ...8 N B     ",
"          O C                   ",
"          k ;                   "
};
