/* XPM */
static const char *server_add_xpm[] = {
/* columns rows colors chars-per-pixel */
"16 16 139 2",
"q. c #B6D49C",
"}  c #B6B7BE",
"6  c #C5C6CB",
"Z  c #D9D9DA",
"V  c #D4D5D9",
"0. c #4C7B31",
"o. c #B4D495",
"<  c #A5A5A5",
"F  c #B9BBC1",
"l  c #BEBFC5",
"u. c #CDCED3",
"&. c #D2D2D4",
"A  c #BEBFC6",
"f  c #E1E1E1",
"e  c #E1E1E2",
"%. c #F0F0F0",
"   c None",
":. c #608848",
"T  c #56A950",
"M  c #8F8F8F",
"q  c #9E9E9E",
"`  c #598440",
"-. c #B2B4BB",
"8  c #C1C3C8",
"2  c #CBCBCB",
"x  c #D5D6DA",
"w  c #E9E9E9",
"j. c #4E693F",
"d. c #797979",
"t  c #979798",
"K  c #B5B5B5",
"o  c #C4C4C4",
"<. c #8CBC65",
"8. c #B0B1B9",
"y. c #CECFD4",
"H  c #D3D3D7",
"O. c #D0E6BA",
"9. c #AEB1B9",
"7. c #B3B5BD",
"R  c #D1D3D7",
"&  c #CCCCCC",
"G  c #B8B9C0",
"p  c #D6D7DB",
"4  c #EAEAEA",
">  c #DBDBDE",
"h. c #6B6B6B",
"a  c #989898",
"^  c #42A13B",
"@  c #B6B6B6",
"z  c #BBBDC3",
"4. c #D4D4D4",
";. c #B1B2BA",
"m  c #C0C1C7",
"(  c #A1B399",
"=  c #E3E3E6",
"l. c #8DBA64",
"@. c #578F2D",
"c  c #919191",
"i  c #919192",
"W  c #AFAFAF",
"|  c #B4B6BD",
".  c #CDCDCD",
"p. c #8BBA62",
"U  c #B9BAC1",
"*  c #DCDCDC",
"n  c #DCDCDD",
"Q  c #EBEBEB",
";  c #DCDCDF",
"B  c #8A8A8A",
"]  c #A8A8A8",
"i. c #3E6F21",
"S  c #BCBEC4",
"s  c #C6C6C6",
")  c #6F935A",
"j  c #C1C2C8",
"!  c #D5D5D7",
"k. c #538C28",
"#. c #376B19",
"f. c #747474",
"a. c #87BA60",
".. c #8CA186",
"#  c #B0B0B0",
"r  c #C4C6CB",
"I  c #BABBC2",
"g  c #DDDDDD",
"0  c #D8D9DC",
"5  c #C9CACF",
"v  c #ECECEC",
",  c #ECECEE",
"/  c #379437",
"C  c #8B8B8B",
"6. c #BDBFC5",
"Y  c #A4C8A0",
" . c #B3B4BB",
"h  c #C2C3C8",
"'  c #49782E",
"1. c #8FBC67",
"J  c #848484",
"u  c #939394",
"$. c #A2A2A2",
"~  c #B6B8BE",
"O  c #C0C0C0",
"1  c #CFCFCF",
"L  c #DEDEDE",
"D  c #BBBCC3",
"2. c #9B9B9B",
"-  c #DCDEE1",
"=. c #B4B5BC",
"7  c #C3C4CA",
"w. c #B2D295",
"e. c #A3A3A3",
"X. c #81AB61",
"{  c #B7B9C0",
"%  c #D0D0D0",
"3  c #DFDFDF",
"5. c #DFDFE1",
"9  c #C1C1C7",
"E  c #7E7E7E",
"N  c #8D8D8D",
"s. c #87B960",
"$  c #ABABAB",
"r. c #C4C5C6",
"k  c #BFC1C6",
"[  c #D3D4D5",
"X  c #C9C9C9",
"*. c #B5B6BE",
"P  c #D8D8D9",
"t. c #D3D4D9",
"_  c #668E4F",
"y  c #959596",
"3. c #B3B3B3",
",. c #B1D692",
"b  c #E0E0E0",
":  c #DBDCDF",
"d  c #EFEFEF",
">. c #B1D390",
"g. c #707070",
"+. c #8FBB6A",
"+  c #BBBBBB",
/* pixels */
"                                ",
"        . X o O + @ # $         ",
"    % & * = - ; : > , <         ",
"  1 2 3 4 5 6 7 8 9 0 q         ",
"  2 w w e r t y u i p a         ",
"  s d f g h j k l z x c         ",
"  O v b n m i M N B V C         ",
"  + v 3 Z A S D F G H J         ",
"  K v L P z I U Y T R E         ",
"  W Q g ! F G ~ ^ / ( ) _ ` '   ",
"  ] 4 g [ { } |  ...X.o.O.+.@.#.",
"  $.%.b &.*.=.-.;.:.>.,.  <.1.#.",
"  2.3.4.5.6.7.8.9.0.q.      w.#.",
"    M B e.r.t.y.u.i.p.a.  s.1.#.",
"        E d.f.g.h.j.k.l.w.l.k.#.",
"                    #.#.#.#.#.  "
};
