/* XPM */
static const char *application_view_gallery_xpm[] = {
/* columns rows colors chars-per-pixel */
"16 16 104 2",
"-  c #6C94C9",
")  c #F7FAFE",
"I  c #E8E8E8",
"e  c #F8E074",
"#. c #587BB1",
"7  c #5EC1D7",
"0  c #6EC0FB",
"A  c #A0E174",
"4  c #79A3D9",
"x  c #5DCD45",
"^  c #FAFBFE",
"   c None",
"{  c #84C37E",
"F  c #8BDB5C",
".  c #5171A9",
"m  c #3EACEC",
"X. c #688EC3",
"Z  c #A3E27C",
"d  c #65BCFF",
"3  c #6387BD",
"G  c #89DB5B",
"l  c #5FC766",
"&. c #5475AB",
"_  c #5475AC",
"5  c #B5B5B5",
"*  c #7099CE",
"+  c #7AA4DA",
"h  c #BECA98",
"1  c #7AA4DB",
"<  c #668BC0",
"~  c #FBFCFE",
"$. c #5779AE",
"9  c #72C2FB",
"%  c #739DD2",
"C  c #98DE6D",
"P  c #EAEAEA",
"o. c #6488BE",
"b  c #5CC0A7",
"[  c #FCFDFE",
"!  c #FCFDFF",
"R  c #587AB0",
"*. c #5373A9",
"|  c #5373AA",
"E  c #6F97CC",
"@  c #79A2D8",
">  c #92B9E8",
"6  c #57BCCF",
"y  c #6085BA",
"2  c #EBEBEB",
"n  c #4DB4D7",
"}  c #FE6F6B",
"z  c #51C74D",
"q  c #6ABFFB",
"Q  c #FDFEFF",
"r  c #EADA86",
"O  c #7AA6DC",
"t  c #B0B0B0",
"g  c #A8C8AE",
";  c #7A9AC4",
"M  c #3CA5E9",
"D  c #8CDB5A",
"i  c #30BF49",
"]  c #F2CD55",
"L  c #739CD1",
"v  c #5DC676",
"T  c #E5E5E5",
"/  c #F9FBFE",
"f  c #7CC0ED",
"V  c #93D96D",
"+. c #5F83B9",
"K  c #5A7CB2",
"a  c #62BFE3",
"o  c #7BA7DC",
"#  c #76A0D5",
"j  c #B1B1B1",
":  c #85ACDD",
" . c #6C92C8",
"=  c #6F96CB",
"Y  c #E6E6E6",
"X  c #8DB1DD",
",  c #6F90C1",
".. c #5172A9",
"%. c #5676AD",
"c  c #5DCB4D",
"N  c #B2B2B2",
"&  c #729ACF",
"k  c #5E81B7",
"s  c #6ABEFF",
"'  c #60B0EB",
"u  c #53C66F",
"$  c #759ED4",
"S  c #93DE60",
"(  c #F6F9FE",
"U  c #E7E7E7",
"H  c #84D260",
"O. c #6185BB",
"@. c #5C7EB4",
"B  c #5C7EB5",
"w  c #C6D093",
"J  c #B3B3B3",
"`  c #6E94CA",
"W  c #FEFEFF",
"8  c #75C4FA",
"p  c #39BC71",
/* pixels */
"                                ",
". X o O + @ # $ % & * = - ; .   ",
": > > > > > > > > > > > > > ,   ",
"o o o o o o o o o o o o o o <   ",
"1 2 2 2 2 2 2 2 2 2 2 2 2 2 3   ",
"4 2 5 6 7 8 9 0 q w e r t 2 y   ",
"@ 2 5 u i p a s d f g h j 2 k   ",
"# 2 5 l z x c v b n m M N 2 B   ",
"$ 2 5 V C Z A S D F G H J 2 K   ",
"L 2 P P P I I I U U U Y T 2 R   ",
"E   W W Q Q ! ~ ~ ^ / ( )   _   ",
"`   ' ' W ] ] [ { { ~ } }   |   ",
" .                          ..  ",
". X.< o.O.+.@.K #.$.%.&.*.. .   ",
"                                ",
"                                "
};
