/* XPM */
static const char *stop_xpm[] = {
/* columns rows colors chars-per-pixel */
"16 16 71 1",
"  c None",
"s c #5577BE",
"4 c #91B3F3",
"+ c #7DA3EF",
"V c #A0BCF3",
"M c #4E79CE",
"- c #B9CDF9",
"q c #85A8F2",
"J c #335CB0",
". c #8DB3FD",
"g c #A1BDF8",
"m c #5985DA",
"B c #093085",
"8 c #BACEF9",
"D c #4062A7",
"A c #597CC1",
"O c #81A8F3",
"; c #B3CAF9",
"6 c #254EA2",
": c #ACC6F9",
"3 c #98B6F6",
"F c #37589B",
"@ c #789EEA",
"9 c #A5BFF8",
"e c #6C8DD0",
"y c #ADC7F8",
"0 c #94B3F3",
"= c #C6D8FA",
"< c #DAE5FB",
"# c #749BE7",
"C c #83A1D7",
"& c #D5E1FC",
"b c #7EA3ED",
"j c #799FEF",
"i c #88ABF2",
"7 c #D3E1FB",
"l c #5984DC",
"a c #6D94E6",
"h c #90B0F4",
"d c #163E92",
"N c #4365AC",
"G c #052C81",
"r c #1E469A",
"* c #D4E2FB",
"1 c #CADAFB",
", c #2D55AA",
"% c #6E95E2",
"5 c #87A3DC",
"c c #AFC9F9",
"P c #0D3489",
"n c #6C95E6",
"t c #C8D7FB",
"X c #8AB0FA",
"v c #94B5F5",
"2 c #A8C2F8",
"I c #062D82",
"k c #6892E6",
"o c #86ADF6",
"Z c #6D8DCE",
"K c #2A53A7",
"L c #20489D",
"H c #3962B6",
"S c #486BAF",
"$ c #7097E3",
"z c #486BB4",
"w c #7A9FEB",
"p c #7A9FED",
"> c #9DBBF5",
"u c #98B7F7",
"f c #BBD0F9",
"x c #0F368B",
/* pixels */
"                ",
"                ",
"                ",
"   .XoO+@#$%    ",
"   X&*=-;:>,    ",
"   o<1;23456    ",
"   O7890qwer    ",
"   +tyuipasd    ",
"   @fghjklzx    ",
"   #cvbnmMNB    ",
"   $VCZASDFG    ",
"   %HJKLdPIG    ",
"                ",
"                ",
"                ",
"                "
};
